<svg xmlns="http://www.w3.org/2000/svg" viewBox="0 0 500 500"><g id="freepik--background-complete--inject-73"><rect x="416.78" y="398.49" width="33.12" height="0.25" style="fill:#ebebeb"></rect><rect x="322.53" y="401.21" width="8.69" height="0.25" style="fill:#ebebeb"></rect><rect x="396.59" y="389.21" width="19.19" height="0.25" style="fill:#ebebeb"></rect><rect x="52.46" y="390.89" width="43.19" height="0.25" style="fill:#ebebeb"></rect><rect x="104.56" y="390.89" width="6.33" height="0.25" style="fill:#ebebeb"></rect><rect x="131.47" y="395.11" width="93.68" height="0.25" style="fill:#ebebeb"></rect><path d="M237,337.8H43.92a5.71,5.71,0,0,1-5.71-5.71V60.66A5.71,5.71,0,0,1,43.92,55H237a5.71,5.71,0,0,1,5.71,5.71V332.09A5.71,5.71,0,0,1,237,337.8ZM43.92,55.2a5.47,5.47,0,0,0-5.46,5.46V332.09a5.47,5.47,0,0,0,5.46,5.46H237a5.47,5.47,0,0,0,5.46-5.46V60.66A5.47,5.47,0,0,0,237,55.2Z" style="fill:#ebebeb"></path><path d="M453.31,337.8H260.21a5.72,5.72,0,0,1-5.71-5.71V60.66A5.72,5.72,0,0,1,260.21,55h193.1A5.71,5.71,0,0,1,459,60.66V332.09A5.71,5.71,0,0,1,453.31,337.8ZM260.21,55.2a5.47,5.47,0,0,0-5.46,5.46V332.09a5.47,5.47,0,0,0,5.46,5.46h193.1a5.47,5.47,0,0,0,5.46-5.46V60.66a5.47,5.47,0,0,0-5.46-5.46Z" style="fill:#ebebeb"></path><rect y="382.4" width="500" height="0.25" style="fill:#ebebeb"></rect><path d="M60.37,175.09a80.94,80.94,0,1,1,161.87,0V364H60.37Z" style="fill:#fafafa"></path><path d="M192.24,175.09a50.94,50.94,0,1,0-101.87,0V334H192.24Z" style="fill:#e6e6e6"></path><polygon points="222.24 364 60.37 364 90.37 334 192.24 334 222.24 364" style="fill:#f0f0f0"></polygon><path d="M114.08,282c5.93,1.11,17,1.86,29.73,1.86s23.8-.75,29.73-1.86a4.9,4.9,0,0,0,1.09,1.64c1.93,1.93,5.75,1.24,7,0s1.93-5,0-7c-.41-.41-1.14-.46-1.38-.95-2-4.14,1.6-12,1.6-20.54s-3.64-16.39-1.6-20.53c.82-1.66,2.83-2.48,2.83-4.45s-2-2.79-2.83-4.45c-2-4.13,1.6-12,1.6-20.53s-3.64-16.4-1.6-20.53c.24-.5,1-.55,1.38-1,1.93-1.93,1.24-5.75,0-7s-5.05-1.93-7,0c-.48.48-.52,1.33-1.09,1.64-5.29,2.9-17-1.85-29.73-1.85s-24.44,4.75-29.73,1.85c-.56-.31-.6-1.16-1.09-1.64-1.92-1.93-5.75-1.24-7,0s-1.93,5.05,0,7c.41.41,1.14.46,1.38,1,2,4.13-1.59,12-1.59,20.53s3.63,16.4,1.59,20.53c-.81,1.66-2.83,2.48-2.83,4.45s2,2.79,2.83,4.45c2,4.14-1.59,12-1.59,20.53s3.64,16.4,1.59,20.54c-.24.49-1,.54-1.38.95-1.93,1.93-1.23,5.75,0,7s5.06,1.93,7,0A4.76,4.76,0,0,0,114.08,282Z" style="fill:#e0e0e0"></path><path d="M111.83,279.76c5.93,1.11,17,1.85,29.73,1.85s23.8-.74,29.73-1.85a4.76,4.76,0,0,0,1.09,1.64c1.93,1.93,5.75,1.24,7,0s1.93-5,0-7c-.41-.41-1.14-.46-1.38-1-2-4.13,1.59-12,1.59-20.53s-3.63-16.4-1.59-20.53c.82-1.66,2.83-2.48,2.83-4.45s-2-2.79-2.83-4.45c-2-4.14,1.59-12,1.59-20.53s-3.63-16.4-1.59-20.54c.24-.49,1-.54,1.38-1,1.93-1.93,1.24-5.75,0-7s-5.05-1.93-7,0c-.49.48-.52,1.33-1.09,1.64-5.29,2.9-17-1.86-29.73-1.86s-24.44,4.76-29.73,1.86c-.56-.31-.6-1.16-1.09-1.64-1.93-1.93-5.75-1.24-7,0s-1.93,5.05,0,7c.41.41,1.14.46,1.38,1,2,4.14-1.59,12-1.59,20.54s3.63,16.39,1.59,20.53c-.82,1.66-2.83,2.48-2.83,4.45s2,2.79,2.83,4.45c2,4.13-1.59,12-1.59,20.53s3.63,16.4,1.59,20.53c-.24.5-1,.55-1.38,1-1.93,1.93-1.24,5.75,0,7s5,1.93,7,0A4.76,4.76,0,0,0,111.83,279.76Z" style="fill:#fafafa"></path><rect x="111.81" y="183.61" width="59.5" height="88.69" style="fill:#ebebeb"></rect><rect x="115.92" y="189.73" width="51.29" height="76.45" style="fill:#f5f5f5"></rect><circle cx="143.81" cy="215.22" r="10.29" transform="translate(-98.69 305.73) rotate(-76.72)" style="fill:#e0e0e0"></circle><polygon points="133.52 255.22 148.57 237.22 154.1 255.22 133.52 255.22" style="fill:#ebebeb"></polygon><path d="M126.27,202.43c-7.2,11.72-2,26.28,6.19,35.85,1.26,1.47,3.37-.67,2.12-2.13-7.3-8.54-12.17-21.7-5.72-32.21,1-1.65-1.58-3.16-2.59-1.51Z" style="fill:#ebebeb"></path><polygon points="156.57 194.59 151.07 200.22 156.57 204.93 161.57 199.76 156.57 194.59" style="fill:#ebebeb"></polygon><path d="M277.76,173.3a80.94,80.94,0,0,1,161.87,0V362.21H277.76Z" style="fill:#fafafa"></path><path d="M409.63,173.3a50.94,50.94,0,0,0-101.87,0V332.21H409.63Z" style="fill:#e6e6e6"></path><polygon points="439.63 362.21 277.76 362.21 307.76 332.21 409.63 332.21 439.63 362.21" style="fill:#f0f0f0"></polygon><path d="M375.29,201.57a6.23,6.23,0,0,0-.57-12.43h-32a6.23,6.23,0,0,0-.57,12.43l-.22,12.76a30.47,30.47,0,0,0-13.69,25.45c0,10.83,15.46,53.2,14.15,84.08-.25,5.86-5.35,12.22-9.2,16.21a2.38,2.38,0,0,0,1.71,4h47.68a2.38,2.38,0,0,0,1.71-4c-3.86-4-9-10.35-9.21-16.21-1.31-30.88,14.16-73.25,14.16-84.08a30.49,30.49,0,0,0-13.69-25.45Z" style="fill:#fafafa"></path><path d="M344,340.07c3.86-4,9-10.35,9.21-16.21C354.49,293,339,250.61,339,239.78a30.47,30.47,0,0,1,13.69-25.45l.22-12.76a6.23,6.23,0,0,1,.57-12.43H342.68a6.23,6.23,0,0,0-.57,12.43l-.22,12.76a30.47,30.47,0,0,0-13.69,25.45c0,10.83,15.46,53.2,14.15,84.08-.25,5.86-5.35,12.22-9.2,16.21a2.38,2.38,0,0,0,1.71,4h10.82A2.38,2.38,0,0,1,344,340.07Z" style="fill:#f0f0f0"></path><path d="M382.55,234.52l6.61,4.23a27.64,27.64,0,0,0-.26-3.18l-6.26-4.9-13.27,8.72L361.25,256l-4.33-12.17-15-8.33-6.31-15.58c-.35.41-.69.83-1,1.25l6,17,13,8.33L360.93,267v22.85l2.8,3.46-10.57,16-6.59-2.63-4.4,5.95c.07,1.15.13,2.29.17,3.42l5.61-6.51,6.75,2.7,11.58-15.81L375.61,308c.11-1.07.22-2.14.35-3.21l-12-16.37,1-22.12-1.83-5.13,8.38-20Z" style="fill:#e0e0e0"></path><path d="M339,190.33l11,7.54,8-1.3,7.11,8.33,10.18.07,0-2.32-8.06-.35-7.77-9-8.39,1.36-9.81-5.35A6.2,6.2,0,0,0,339,190.33Z" style="fill:#e0e0e0"></path></g><g id="freepik--Shadow--inject-73"><ellipse id="freepik--path--inject-73" cx="245.18" cy="412.39" rx="193.89" ry="11.32" style="fill:#f5f5f5"></ellipse></g><g id="freepik--Dinosaur--inject-73"><path d="M247.49,391.17c-1.09.1-2.05.8-1.59,4.1s-2.62,9.8-4.22,10.48-3,1-2.39,2.06,4.67,1,7.06-1.83,4.9-8.16,4-11.77C249.58,391.38,248.55,391.07,247.49,391.17Z" style="fill:#407BFF"></path><path d="M247.49,391.17c-1.09.1-2.05.8-1.59,4.1s-2.62,9.8-4.22,10.48-3,1-2.39,2.06,4.67,1,7.06-1.83,4.9-8.16,4-11.77C249.58,391.38,248.55,391.07,247.49,391.17Z" style="fill:#fff;opacity:0.30000000000000004"></path><path d="M295.06,395.09c-1,0-1.88.6-1.65,3.58s-2.88,8.63-4.35,9.15-2.7.76-2.25,1.71,4.13,1.17,6.42-1.25,4.83-7,4.19-10.32C296.92,395.39,296,395.06,295.06,395.09Z" style="fill:#407BFF"></path><path d="M295.06,395.09c-1,0-1.88.6-1.65,3.58s-2.88,8.63-4.35,9.15-2.7.76-2.25,1.71,4.13,1.17,6.42-1.25,4.83-7,4.19-10.32C296.92,395.39,296,395.06,295.06,395.09Z" style="fill:#fff;opacity:0.30000000000000004"></path><path d="M160.35,383c-.83.16-2,.68-1.4,3.07s.73,9.55-.94,11-2.74,2.66-1.82,3.4,4.45-.37,5.54-2.34S167.7,381.57,160.35,383Z" style="fill:#407BFF"></path><path d="M160.35,383c-.83.16-2,.68-1.4,3.07s.73,9.55-.94,11-2.74,2.66-1.82,3.4,4.45-.37,5.54-2.34S167.7,381.57,160.35,383Z" style="fill:#fff;opacity:0.30000000000000004"></path><path d="M167.05,359.57c.11-2,.72-8.37,5.83-5.42s11.65.22,9.91,5.78-5.44,6.25-6.65,11.32-.93,14.49-4.57,13.13-4.31-2.31-7.26-2.72-7.62-1.47-3.55-6.51S166.69,366.4,167.05,359.57Z" style="fill:#407BFF"></path><path d="M167.05,359.57c.11-2,.72-8.37,5.83-5.42s11.65.22,9.91,5.78-5.44,6.25-6.65,11.32-.93,14.49-4.57,13.13-4.31-2.31-7.26-2.72-7.62-1.47-3.55-6.51S166.69,366.4,167.05,359.57Z" style="fill:#fff;opacity:0.30000000000000004"></path><path d="M163.55,384.08c-.83.16-2,.68-1.4,3.07s.73,9.57-.94,11-2.74,2.66-1.82,3.4,4.46-.37,5.54-2.35S170.92,382.61,163.55,384.08Z" style="fill:#407BFF"></path><path d="M163.55,384.08c-.83.16-2,.68-1.4,3.07s.73,9.57-.94,11-2.74,2.66-1.82,3.4,4.46-.37,5.54-2.35S170.92,382.61,163.55,384.08Z" style="fill:#fff;opacity:0.5"></path><path d="M167.48,385.32c-.83.17-2,.68-1.41,3.08s.73,9.56-.93,11-2.74,2.66-1.82,3.4,4.45-.37,5.54-2.35S174.85,383.85,167.48,385.32Z" style="fill:#407BFF"></path><path d="M167.48,385.32c-.83.17-2,.68-1.41,3.08s.73,9.56-.93,11-2.74,2.66-1.82,3.4,4.45-.37,5.54-2.35S174.85,383.85,167.48,385.32Z" style="fill:#fff;opacity:0.7000000000000001"></path><path d="M254.42,377.59c.34-1.43,1.29-4.2,1-5.82s1-7,4.85-4,8.73,4.65,7.11,7.24-4.36,2.26-4.85,4.36-2.1,8.08-1.94,10.18-1.78,4-6,2.1-8.08-3.07-6-5.82S253.07,383.33,254.42,377.59Z" style="fill:#407BFF"></path><path d="M254.42,377.59c.34-1.43,1.29-4.2,1-5.82s1-7,4.85-4,8.73,4.65,7.11,7.24-4.36,2.26-4.85,4.36-2.1,8.08-1.94,10.18-1.78,4-6,2.1-8.08-3.07-6-5.82S253.07,383.33,254.42,377.59Z" style="fill:#fff;opacity:0.30000000000000004"></path><path d="M249.7,392c-1.1.1-2,.8-1.6,4.1s-2.62,9.8-4.21,10.48-3,1-2.39,2.05,4.67,1,7.06-1.82,4.9-8.16,4-11.77C251.79,392.2,250.76,391.89,249.7,392Z" style="fill:#407BFF"></path><path d="M249.7,392c-1.1.1-2,.8-1.6,4.1s-2.62,9.8-4.21,10.48-3,1-2.39,2.05,4.67,1,7.06-1.82,4.9-8.16,4-11.77C251.79,392.2,250.76,391.89,249.7,392Z" style="fill:#fff;opacity:0.5"></path><path d="M257.84,361.11c.33-1.35,2.15-3,4.18-3.64,3.37-1.05,9.85-10.5,10.58-15.11.38-2.39,2.18-10.75,7.76-6.54s9.53,7.27,5.82,10.74-6.22,2.83-9.46,6.79-6.23,7.87-5.91,10.22-1.2,7.31-4.43,6.43c-3.57-1-3.07-3.56-4.85-4S257,364.43,257.84,361.11Z" style="fill:#407BFF"></path><path d="M257.84,361.11c.33-1.35,2.15-3,4.18-3.64,3.37-1.05,9.85-10.5,10.58-15.11.38-2.39,2.18-10.75,7.76-6.54s9.53,7.27,5.82,10.74-6.22,2.83-9.46,6.79-6.23,7.87-5.91,10.22-1.2,7.31-4.43,6.43c-3.57-1-3.07-3.56-4.85-4S257,364.43,257.84,361.11Z" style="fill:#fff;opacity:0.30000000000000004"></path><path d="M291.07,381.47c-.87-1.19-2.35-3.72-3.78-4.52s-4.72-5.32.11-6.29,9.21-3.6,10.12-.7-1.12,4.79.16,6.53,4.77,6.85,6.47,8.09,1.92,4-2.29,5.91-7.59,4.14-8.31.76S294.55,386.23,291.07,381.47Z" style="fill:#407BFF"></path><path d="M291.07,381.47c-.87-1.19-2.35-3.72-3.78-4.52s-4.72-5.32.11-6.29,9.21-3.6,10.12-.7-1.12,4.79.16,6.53,4.77,6.85,6.47,8.09,1.92,4-2.29,5.91-7.59,4.14-8.31.76S294.55,386.23,291.07,381.47Z" style="fill:#fff;opacity:0.7000000000000001"></path><path d="M299.13,393.29c-1.1,0-2.09.67-1.84,4s-3.22,9.62-4.85,10.21-3,.84-2.51,1.9,4.6,1.31,7.16-1.39,5.39-7.85,4.67-11.51C301.2,393.62,300.2,393.26,299.13,393.29Z" style="fill:#407BFF"></path><path d="M299.13,393.29c-1.1,0-2.09.67-1.84,4s-3.22,9.62-4.85,10.21-3,.84-2.51,1.9,4.6,1.31,7.16-1.39,5.39-7.85,4.67-11.51C301.2,393.62,300.2,393.26,299.13,393.29Z" style="fill:#fff;opacity:0.5"></path><path d="M168.9,299.59c.23,3-.7,6.86,1.49,11.87s3.34,22.69,1.18,29-2.88,11.87,3.18,12.14c1.58.06,1.76-.59,4.4-.53,3.84.08,6.53,1.8,7.45-1.32,1.24-4.22-2.4-10.56-2.64-18.47s-2.42-16.63-.48-22.17,4.36-13.72-.49-15.57-4.85,1.32-7.51,0S168.5,294.41,168.9,299.59Z" style="fill:#407BFF"></path><path d="M168.9,299.59c.23,3-.7,6.86,1.49,11.87s3.34,22.69,1.18,29-2.88,11.87,3.18,12.14c1.58.06,1.76-.59,4.4-.53,3.84.08,6.53,1.8,7.45-1.32,1.24-4.22-2.4-10.56-2.64-18.47s-2.42-16.63-.48-22.17,4.36-13.72-.49-15.57-4.85,1.32-7.51,0S168.5,294.41,168.9,299.59Z" style="fill:#fff;opacity:0.30000000000000004"></path><path d="M173.29,311c1.05,6.76,6.45,13.05,16.85,21.57,12.12,9.94,24.6,15.15,25.82,12.37.85-1.94-13.93-7.39-25.82-18.67C178.51,315.25,172.44,305.49,173.29,311Z" style="fill:#407BFF"></path><path d="M173.29,311c1.05,6.76,6.45,13.05,16.85,21.57,12.12,9.94,24.6,15.15,25.82,12.37.85-1.94-13.93-7.39-25.82-18.67C178.51,315.25,172.44,305.49,173.29,311Z" style="fill:#fff;opacity:0.5"></path><path d="M206.36,278.29a1,1,0,0,1-.47-1.32l2.24-4.94a1.46,1.46,0,0,0-.71-1.95l-.85-.39a1.46,1.46,0,0,0-1.82.56L201.69,275a1.26,1.26,0,0,1-1.57.49,2.45,2.45,0,0,0-3.21,1.31l-3.83,8.78a2.42,2.42,0,0,0,1.13,3.23,1.72,1.72,0,0,1,1,1.82l-.06.38a1.7,1.7,0,0,0,.95,1.79l1,.45a1.72,1.72,0,0,0,2.25-.92l.1-.21a.85.85,0,0,1,1.12-.45,1.91,1.91,0,0,0,2.49-1l4.35-9.45A2.19,2.19,0,0,0,206.36,278.29Z" style="fill:#407BFF"></path><g style="opacity:0.7000000000000001"><path d="M206.36,278.29a1,1,0,0,1-.47-1.32l2.24-4.94a1.46,1.46,0,0,0-.71-1.95l-.85-.39a1.46,1.46,0,0,0-1.82.56L201.69,275a1.26,1.26,0,0,1-1.57.49,2.45,2.45,0,0,0-3.21,1.31l-3.83,8.78a2.42,2.42,0,0,0,1.13,3.23,1.72,1.72,0,0,1,1,1.82l-.06.38a1.7,1.7,0,0,0,.95,1.79l1,.45a1.72,1.72,0,0,0,2.25-.92l.1-.21a.85.85,0,0,1,1.12-.45,1.91,1.91,0,0,0,2.49-1l4.35-9.45A2.19,2.19,0,0,0,206.36,278.29Z" style="fill:#fff"></path></g><path d="M217.52,283.49a1,1,0,0,1-.45-1.33l2.32-4.89a1.47,1.47,0,0,0-.67-2l-.84-.4a1.48,1.48,0,0,0-1.84.53l-3.13,4.69a1.25,1.25,0,0,1-1.57.47,2.44,2.44,0,0,0-3.23,1.25l-4,8.7a2.43,2.43,0,0,0,1.1,3.26,1.74,1.74,0,0,1,.94,1.84l-.06.38a1.67,1.67,0,0,0,.92,1.8l1,.47a1.72,1.72,0,0,0,2.27-.88l.1-.21a.86.86,0,0,1,1.13-.43,1.9,1.9,0,0,0,2.5-1l4.49-9.38A2.18,2.18,0,0,0,217.52,283.49Z" style="fill:#407BFF"></path><g style="opacity:0.7000000000000001"><path d="M217.52,283.49a1,1,0,0,1-.45-1.33l2.32-4.89a1.47,1.47,0,0,0-.67-2l-.84-.4a1.48,1.48,0,0,0-1.84.53l-3.13,4.69a1.25,1.25,0,0,1-1.57.47,2.44,2.44,0,0,0-3.23,1.25l-4,8.7a2.43,2.43,0,0,0,1.1,3.26,1.74,1.74,0,0,1,.94,1.84l-.06.38a1.67,1.67,0,0,0,.92,1.8l1,.47a1.72,1.72,0,0,0,2.27-.88l.1-.21a.86.86,0,0,1,1.13-.43,1.9,1.9,0,0,0,2.5-1l4.49-9.38A2.18,2.18,0,0,0,217.52,283.49Z" style="fill:#fff"></path></g><path d="M228.6,288.86a1,1,0,0,1-.43-1.34l2.39-4.86a1.47,1.47,0,0,0-.64-2l-.83-.4a1.46,1.46,0,0,0-1.84.5L224,285.42a1.26,1.26,0,0,1-1.58.44,2.43,2.43,0,0,0-3.24,1.21l-4.15,8.63a2.45,2.45,0,0,0,1.05,3.28,1.73,1.73,0,0,1,.91,1.86l-.06.38a1.67,1.67,0,0,0,.89,1.81l1,.49a1.73,1.73,0,0,0,2.28-.85l.1-.21a.86.86,0,0,1,1.13-.42,1.89,1.89,0,0,0,2.52-.92l4.64-9.31A2.2,2.2,0,0,0,228.6,288.86Z" style="fill:#407BFF"></path><g style="opacity:0.7000000000000001"><path d="M228.6,288.86a1,1,0,0,1-.43-1.34l2.39-4.86a1.47,1.47,0,0,0-.64-2l-.83-.4a1.46,1.46,0,0,0-1.84.5L224,285.42a1.26,1.26,0,0,1-1.58.44,2.43,2.43,0,0,0-3.24,1.21l-4.15,8.63a2.45,2.45,0,0,0,1.05,3.28,1.73,1.73,0,0,1,.91,1.86l-.06.38a1.67,1.67,0,0,0,.89,1.81l1,.49a1.73,1.73,0,0,0,2.28-.85l.1-.21a.86.86,0,0,1,1.13-.42,1.89,1.89,0,0,0,2.52-.92l4.64-9.31A2.2,2.2,0,0,0,228.6,288.86Z" style="fill:#fff"></path></g><path d="M239.6,294.41a1,1,0,0,1-.41-1.35l2.48-4.82a1.46,1.46,0,0,0-.62-2l-.83-.42a1.45,1.45,0,0,0-1.85.47l-3.27,4.58a1.26,1.26,0,0,1-1.59.42,2.44,2.44,0,0,0-3.27,1.16L226,301a2.45,2.45,0,0,0,1,3.29,1.71,1.71,0,0,1,.88,1.86l-.07.38a1.71,1.71,0,0,0,.86,1.84l1,.5a1.74,1.74,0,0,0,2.3-.82l.1-.21a.87.87,0,0,1,1.15-.4,1.89,1.89,0,0,0,2.53-.88l4.79-9.23A2.19,2.19,0,0,0,239.6,294.41Z" style="fill:#407BFF"></path><g style="opacity:0.7000000000000001"><path d="M239.6,294.41a1,1,0,0,1-.41-1.35l2.48-4.82a1.46,1.46,0,0,0-.62-2l-.83-.42a1.45,1.45,0,0,0-1.85.47l-3.27,4.58a1.26,1.26,0,0,1-1.59.42,2.44,2.44,0,0,0-3.27,1.16L226,301a2.45,2.45,0,0,0,1,3.29,1.71,1.71,0,0,1,.88,1.86l-.07.38a1.71,1.71,0,0,0,.86,1.84l1,.5a1.74,1.74,0,0,0,2.3-.82l.1-.21a.87.87,0,0,1,1.15-.4,1.89,1.89,0,0,0,2.53-.88l4.79-9.23A2.19,2.19,0,0,0,239.6,294.41Z" style="fill:#fff"></path></g><path d="M250.51,300.17a1,1,0,0,1-.39-1.36l2.57-4.77a1.47,1.47,0,0,0-.58-2l-.82-.45a1.46,1.46,0,0,0-1.86.44l-3.36,4.53a1.27,1.27,0,0,1-1.6.39,2.44,2.44,0,0,0-3.29,1.1l-4.43,8.49a2.45,2.45,0,0,0,.94,3.31,1.71,1.71,0,0,1,.85,1.87l-.08.38a1.69,1.69,0,0,0,.82,1.84l1,.53a1.72,1.72,0,0,0,2.3-.78l.11-.2a.85.85,0,0,1,1.15-.38,1.89,1.89,0,0,0,2.54-.84l5-9.13A2.17,2.17,0,0,0,250.51,300.17Z" style="fill:#407BFF"></path><g style="opacity:0.7000000000000001"><path d="M250.51,300.17a1,1,0,0,1-.39-1.36l2.57-4.77a1.47,1.47,0,0,0-.58-2l-.82-.45a1.46,1.46,0,0,0-1.86.44l-3.36,4.53a1.27,1.27,0,0,1-1.6.39,2.44,2.44,0,0,0-3.29,1.1l-4.43,8.49a2.45,2.45,0,0,0,.94,3.31,1.71,1.71,0,0,1,.85,1.87l-.08.38a1.69,1.69,0,0,0,.82,1.84l1,.53a1.72,1.72,0,0,0,2.3-.78l.11-.2a.85.85,0,0,1,1.15-.38,1.89,1.89,0,0,0,2.54-.84l5-9.13A2.17,2.17,0,0,0,250.51,300.17Z" style="fill:#fff"></path></g><path d="M261.31,306.15a1,1,0,0,1-.35-1.36l2.68-4.71a1.47,1.47,0,0,0-.55-2l-.81-.46a1.47,1.47,0,0,0-1.88.39l-3.46,4.45a1.26,1.26,0,0,1-1.61.35,2.44,2.44,0,0,0-3.31,1l-4.59,8.41a2.44,2.44,0,0,0,.85,3.32,1.73,1.73,0,0,1,.8,1.9l-.09.38a1.66,1.66,0,0,0,.78,1.85l.95.54a1.73,1.73,0,0,0,2.32-.73l.12-.2a.84.84,0,0,1,1.15-.35,1.89,1.89,0,0,0,2.55-.77l5.2-9A2.19,2.19,0,0,0,261.31,306.15Z" style="fill:#407BFF"></path><g style="opacity:0.7000000000000001"><path d="M261.31,306.15a1,1,0,0,1-.35-1.36l2.68-4.71a1.47,1.47,0,0,0-.55-2l-.81-.46a1.47,1.47,0,0,0-1.88.39l-3.46,4.45a1.26,1.26,0,0,1-1.61.35,2.44,2.44,0,0,0-3.31,1l-4.59,8.41a2.44,2.44,0,0,0,.85,3.32,1.73,1.73,0,0,1,.8,1.9l-.09.38a1.66,1.66,0,0,0,.78,1.85l.95.54a1.73,1.73,0,0,0,2.32-.73l.12-.2a.84.84,0,0,1,1.15-.35,1.89,1.89,0,0,0,2.55-.77l5.2-9A2.19,2.19,0,0,0,261.31,306.15Z" style="fill:#fff"></path></g><path d="M271.39,312.72a.89.89,0,0,1-.29-1.23l2.54-4.17a1.34,1.34,0,0,0-.44-1.84l-.73-.44a1.31,1.31,0,0,0-1.7.29l-3.23,3.92a1.14,1.14,0,0,1-1.46.29,2.2,2.2,0,0,0-3,.85l-4.33,7.45a2.18,2.18,0,0,0,.7,3,1.53,1.53,0,0,1,.67,1.71l-.09.34a1.52,1.52,0,0,0,.64,1.69l.83.51a1.54,1.54,0,0,0,2.09-.6l.11-.17a.75.75,0,0,1,1-.29,1.72,1.72,0,0,0,2.32-.64l4.94-8A2,2,0,0,0,271.39,312.72Z" style="fill:#407BFF"></path><g style="opacity:0.7000000000000001"><path d="M271.39,312.72a.89.89,0,0,1-.29-1.23l2.54-4.17a1.34,1.34,0,0,0-.44-1.84l-.73-.44a1.31,1.31,0,0,0-1.7.29l-3.23,3.92a1.14,1.14,0,0,1-1.46.29,2.2,2.2,0,0,0-3,.85l-4.33,7.45a2.18,2.18,0,0,0,.7,3,1.53,1.53,0,0,1,.67,1.71l-.09.34a1.52,1.52,0,0,0,.64,1.69l.83.51a1.54,1.54,0,0,0,2.09-.6l.11-.17a.75.75,0,0,1,1-.29,1.72,1.72,0,0,0,2.32-.64l4.94-8A2,2,0,0,0,271.39,312.72Z" style="fill:#fff"></path></g><path d="M281.56,319.48a.84.84,0,0,1-.21-1.16l2.55-3.84a1.23,1.23,0,0,0-.35-1.74l-.68-.44a1.29,1.29,0,0,0-1.64.22l-3.18,3.59a1.09,1.09,0,0,1-1.39.21,2.05,2.05,0,0,0-2.86.68l-4.32,6.9a2.1,2.1,0,0,0,.53,2.87,1.43,1.43,0,0,1,.56,1.63l-.1.32a1.41,1.41,0,0,0,.54,1.6l.77.49a1.5,1.5,0,0,0,2-.48l.11-.16a.74.74,0,0,1,1-.22,1.63,1.63,0,0,0,2.25-.5l4.85-7.4A1.85,1.85,0,0,0,281.56,319.48Z" style="fill:#407BFF"></path><g style="opacity:0.7000000000000001"><path d="M281.56,319.48a.84.84,0,0,1-.21-1.16l2.55-3.84a1.23,1.23,0,0,0-.35-1.74l-.68-.44a1.29,1.29,0,0,0-1.64.22l-3.18,3.59a1.09,1.09,0,0,1-1.39.21,2.05,2.05,0,0,0-2.86.68l-4.32,6.9a2.1,2.1,0,0,0,.53,2.87,1.43,1.43,0,0,1,.56,1.63l-.1.32a1.41,1.41,0,0,0,.54,1.6l.77.49a1.5,1.5,0,0,0,2-.48l.11-.16a.74.74,0,0,1,1-.22,1.63,1.63,0,0,0,2.25-.5l4.85-7.4A1.85,1.85,0,0,0,281.56,319.48Z" style="fill:#fff"></path></g><path d="M290.46,325.21a.8.8,0,0,1-.22-1.09l2.3-3.67a1.16,1.16,0,0,0-.3-1.6l-.6-.37a1.13,1.13,0,0,0-1.46.26l-3,3.4a1,1,0,0,1-1.28.21,2,2,0,0,0-2.68.63l-4.19,6.42a2,2,0,0,0,.54,2.74,1.41,1.41,0,0,1,.59,1.58l-.08.3a1.39,1.39,0,0,0,.59,1.56l.79.5a1.42,1.42,0,0,0,1.95-.46l.09-.15a.7.7,0,0,1,1-.23,1.55,1.55,0,0,0,2.13-.52l4.33-7.11A1.75,1.75,0,0,0,290.46,325.21Z" style="fill:#407BFF"></path><g style="opacity:0.7000000000000001"><path d="M290.46,325.21a.8.8,0,0,1-.22-1.09l2.3-3.67a1.16,1.16,0,0,0-.3-1.6l-.6-.37a1.13,1.13,0,0,0-1.46.26l-3,3.4a1,1,0,0,1-1.28.21,2,2,0,0,0-2.68.63l-4.19,6.42a2,2,0,0,0,.54,2.74,1.41,1.41,0,0,1,.59,1.58l-.08.3a1.39,1.39,0,0,0,.59,1.56l.79.5a1.42,1.42,0,0,0,1.95-.46l.09-.15a.7.7,0,0,1,1-.23,1.55,1.55,0,0,0,2.13-.52l4.33-7.11A1.75,1.75,0,0,0,290.46,325.21Z" style="fill:#fff"></path></g><path d="M298.55,330.48a.71.71,0,0,1-.25-1l2-3.56a1.08,1.08,0,0,0-.33-1.47l-.56-.31a1,1,0,0,0-1.33.33l-2.62,3.3a.92.92,0,0,1-1.18.25,1.85,1.85,0,0,0-2.48.7L288,334.88a1.85,1.85,0,0,0,.64,2.56,1.38,1.38,0,0,1,.64,1.48l-.07.29a1.33,1.33,0,0,0,.66,1.45l.78.44a1.34,1.34,0,0,0,1.83-.5l.09-.15a.66.66,0,0,1,.9-.26,1.46,1.46,0,0,0,2-.59l3.64-6.9A1.64,1.64,0,0,0,298.55,330.48Z" style="fill:#407BFF"></path><g style="opacity:0.7000000000000001"><path d="M298.55,330.48a.71.71,0,0,1-.25-1l2-3.56a1.08,1.08,0,0,0-.33-1.47l-.56-.31a1,1,0,0,0-1.33.33l-2.62,3.3a.92.92,0,0,1-1.18.25,1.85,1.85,0,0,0-2.48.7L288,334.88a1.85,1.85,0,0,0,.64,2.56,1.38,1.38,0,0,1,.64,1.48l-.07.29a1.33,1.33,0,0,0,.66,1.45l.78.44a1.34,1.34,0,0,0,1.83-.5l.09-.15a.66.66,0,0,1,.9-.26,1.46,1.46,0,0,0,2-.59l3.64-6.9A1.64,1.64,0,0,0,298.55,330.48Z" style="fill:#fff"></path></g><path d="M306.9,335a.68.68,0,0,1-.31-.91l1.52-3.47a1,1,0,0,0-.39-1.32l-.52-.24a1,1,0,0,0-1.18.42l-2.19,3.27a.85.85,0,0,1-1.07.33h0a1.7,1.7,0,0,0-2.24.82l-3.09,5.95a1.75,1.75,0,0,0,.79,2.37,1.31,1.31,0,0,1,.74,1.34l0,.27a1.29,1.29,0,0,0,.75,1.32l.8.36a1.25,1.25,0,0,0,1.69-.6l.07-.14a.64.64,0,0,1,.84-.32,1.37,1.37,0,0,0,1.83-.71l2.73-6.75A1.52,1.52,0,0,0,306.9,335Z" style="fill:#407BFF"></path><g style="opacity:0.7000000000000001"><path d="M306.9,335a.68.68,0,0,1-.31-.91l1.52-3.47a1,1,0,0,0-.39-1.32l-.52-.24a1,1,0,0,0-1.18.42l-2.19,3.27a.85.85,0,0,1-1.07.33h0a1.7,1.7,0,0,0-2.24.82l-3.09,5.95a1.75,1.75,0,0,0,.79,2.37,1.31,1.31,0,0,1,.74,1.34l0,.27a1.29,1.29,0,0,0,.75,1.32l.8.36a1.25,1.25,0,0,0,1.69-.6l.07-.14a.64.64,0,0,1,.84-.32,1.37,1.37,0,0,0,1.83-.71l2.73-6.75A1.52,1.52,0,0,0,306.9,335Z" style="fill:#fff"></path></g><path d="M314.73,338.24a.62.62,0,0,1-.39-.79l1-3.38a.9.9,0,0,0-.48-1.16l-.49-.15a.87.87,0,0,0-1,.52c-.54,1.09-1.09,2.18-1.65,3.26a.77.77,0,0,1-.94.42,1.58,1.58,0,0,0-2,1l-2.28,5.79a1.65,1.65,0,0,0,1,2.13,1.24,1.24,0,0,1,.85,1.16v.26a1.23,1.23,0,0,0,.88,1.15l.8.25a1.2,1.2,0,0,0,1.53-.74l0-.14a.61.61,0,0,1,.75-.39,1.28,1.28,0,0,0,1.62-.88l1.66-6.55A1.41,1.41,0,0,0,314.73,338.24Z" style="fill:#407BFF"></path><g style="opacity:0.7000000000000001"><path d="M314.73,338.24a.62.62,0,0,1-.39-.79l1-3.38a.9.9,0,0,0-.48-1.16l-.49-.15a.87.87,0,0,0-1,.52c-.54,1.09-1.09,2.18-1.65,3.26a.77.77,0,0,1-.94.42,1.58,1.58,0,0,0-2,1l-2.28,5.79a1.65,1.65,0,0,0,1,2.13,1.24,1.24,0,0,1,.85,1.16v.26a1.23,1.23,0,0,0,.88,1.15l.8.25a1.2,1.2,0,0,0,1.53-.74l0-.14a.61.61,0,0,1,.75-.39,1.28,1.28,0,0,0,1.62-.88l1.66-6.55A1.41,1.41,0,0,0,314.73,338.24Z" style="fill:#fff"></path></g><path d="M322.83,340.27a.59.59,0,0,1-.55-.63l.15-3.25a.83.83,0,0,0-.72-.92l-.48,0a.84.84,0,0,0-.81.69c-.25,1.09-.52,2.18-.79,3.27a.74.74,0,0,1-.78.56,1.51,1.51,0,0,0-1.63,1.3l-.88,5.68a1.55,1.55,0,0,0,1.45,1.7,1.25,1.25,0,0,1,1.08.9l.06.23a1.17,1.17,0,0,0,1.1.85l.82,0a1.14,1.14,0,0,0,1.27-1v-.14a.57.57,0,0,1,.62-.5,1.19,1.19,0,0,0,1.32-1.12l0-6.24A1.36,1.36,0,0,0,322.83,340.27Z" style="fill:#407BFF"></path><g style="opacity:0.7000000000000001"><path d="M322.83,340.27a.59.59,0,0,1-.55-.63l.15-3.25a.83.83,0,0,0-.72-.92l-.48,0a.84.84,0,0,0-.81.69c-.25,1.09-.52,2.18-.79,3.27a.74.74,0,0,1-.78.56,1.51,1.51,0,0,0-1.63,1.3l-.88,5.68a1.55,1.55,0,0,0,1.45,1.7,1.25,1.25,0,0,1,1.08.9l.06.23a1.17,1.17,0,0,0,1.1.85l.82,0a1.14,1.14,0,0,0,1.27-1v-.14a.57.57,0,0,1,.62-.5,1.19,1.19,0,0,0,1.32-1.12l0-6.24A1.36,1.36,0,0,0,322.83,340.27Z" style="fill:#fff"></path></g><path d="M331.72,339.9a.58.58,0,0,1-.63-.54l-.34-3.23a.85.85,0,0,0-.87-.81l-.49.06a.82.82,0,0,0-.71.8c-.08,1.11-.18,2.23-.29,3.35a.72.72,0,0,1-.68.68,1.52,1.52,0,0,0-1.41,1.55l.05,5.75A1.54,1.54,0,0,0,328,349a1.22,1.22,0,0,1,1.19.71l.1.22a1.19,1.19,0,0,0,1.2.69l.79-.09a1.15,1.15,0,0,0,1.09-1.19l0-.14a.56.56,0,0,1,.52-.59,1.19,1.19,0,0,0,1.12-1.3l-.85-6.18A1.36,1.36,0,0,0,331.72,339.9Z" style="fill:#407BFF"></path><g style="opacity:0.7000000000000001"><path d="M331.72,339.9a.58.58,0,0,1-.63-.54l-.34-3.23a.85.85,0,0,0-.87-.81l-.49.06a.82.82,0,0,0-.71.8c-.08,1.11-.18,2.23-.29,3.35a.72.72,0,0,1-.68.68,1.52,1.52,0,0,0-1.41,1.55l.05,5.75A1.54,1.54,0,0,0,328,349a1.22,1.22,0,0,1,1.19.71l.1.22a1.19,1.19,0,0,0,1.2.69l.79-.09a1.15,1.15,0,0,0,1.09-1.19l0-.14a.56.56,0,0,1,.52-.59,1.19,1.19,0,0,0,1.12-1.3l-.85-6.18A1.36,1.36,0,0,0,331.72,339.9Z" style="fill:#fff"></path></g><path d="M340.13,338.13a.53.53,0,0,1-.64-.41l-.66-2.9a.78.78,0,0,0-.9-.63l-.46.08a.75.75,0,0,0-.57.81l.12,3.09a.68.68,0,0,1-.55.71,1.41,1.41,0,0,0-1.09,1.6l.78,5.21a1.38,1.38,0,0,0,1.67,1.09,1.1,1.1,0,0,1,1.15.5l.1.19a1.09,1.09,0,0,0,1.15.48l.71-.13a1,1,0,0,0,.82-1.2l0-.13a.51.51,0,0,1,.4-.59,1.11,1.11,0,0,0,.85-1.32l-1.4-5.55A1.22,1.22,0,0,0,340.13,338.13Z" style="fill:#407BFF"></path><g style="opacity:0.7000000000000001"><path d="M340.13,338.13a.53.53,0,0,1-.64-.41l-.66-2.9a.78.78,0,0,0-.9-.63l-.46.08a.75.75,0,0,0-.57.81l.12,3.09a.68.68,0,0,1-.55.71,1.41,1.41,0,0,0-1.09,1.6l.78,5.21a1.38,1.38,0,0,0,1.67,1.09,1.1,1.1,0,0,1,1.15.5l.1.19a1.09,1.09,0,0,0,1.15.48l.71-.13a1,1,0,0,0,.82-1.2l0-.13a.51.51,0,0,1,.4-.59,1.11,1.11,0,0,0,.85-1.32l-1.4-5.55A1.22,1.22,0,0,0,340.13,338.13Z" style="fill:#fff"></path></g><path d="M348.45,335.77a.55.55,0,0,1-.69-.37l-.92-2.83a.79.79,0,0,0-1-.55l-.46.14a.81.81,0,0,0-.52.89l.43,3.08a.7.7,0,0,1-.48.77,1.33,1.33,0,0,0-.94,1.65l1.33,5.1a1.44,1.44,0,0,0,1.78,1,1.05,1.05,0,0,1,1.16.38l.12.17a1,1,0,0,0,1.15.36l.67-.21a1,1,0,0,0,.7-1.24l0-.12a.5.5,0,0,1,.34-.62,1,1,0,0,0,.72-1.35L350,336.57A1.25,1.25,0,0,0,348.45,335.77Z" style="fill:#407BFF"></path><g style="opacity:0.7000000000000001"><path d="M348.45,335.77a.55.55,0,0,1-.69-.37l-.92-2.83a.79.79,0,0,0-1-.55l-.46.14a.81.81,0,0,0-.52.89l.43,3.08a.7.7,0,0,1-.48.77,1.33,1.33,0,0,0-.94,1.65l1.33,5.1a1.44,1.44,0,0,0,1.78,1,1.05,1.05,0,0,1,1.16.38l.12.17a1,1,0,0,0,1.15.36l.67-.21a1,1,0,0,0,.7-1.24l0-.12a.5.5,0,0,1,.34-.62,1,1,0,0,0,.72-1.35L350,336.57A1.25,1.25,0,0,0,348.45,335.77Z" style="fill:#fff"></path></g><path d="M356.62,334a.53.53,0,0,1-.65-.33l-.8-2.59a.77.77,0,0,0-1-.48l-.47.15a.77.77,0,0,0-.53.84l.44,2.79a.66.66,0,0,1-.44.72,1.24,1.24,0,0,0-.81,1.58l1.54,4.53a1.24,1.24,0,0,0,1.56.8.88.88,0,0,1,1,.34l.11.16a.86.86,0,0,0,1,.34l.54-.18a.87.87,0,0,0,.55-1.09l0-.11a.44.44,0,0,1,.28-.55,1,1,0,0,0,.62-1.2l-1.49-5A1.12,1.12,0,0,0,356.62,334Z" style="fill:#407BFF"></path><g style="opacity:0.7000000000000001"><path d="M356.62,334a.53.53,0,0,1-.65-.33l-.8-2.59a.77.77,0,0,0-1-.48l-.47.15a.77.77,0,0,0-.53.84l.44,2.79a.66.66,0,0,1-.44.72,1.24,1.24,0,0,0-.81,1.58l1.54,4.53a1.24,1.24,0,0,0,1.56.8.88.88,0,0,1,1,.34l.11.16a.86.86,0,0,0,1,.34l.54-.18a.87.87,0,0,0,.55-1.09l0-.11a.44.44,0,0,1,.28-.55,1,1,0,0,0,.62-1.2l-1.49-5A1.12,1.12,0,0,0,356.62,334Z" style="fill:#fff"></path></g><path d="M364.08,331.41a.52.52,0,0,1-.63-.37l-.67-2.62a.76.76,0,0,0-.95-.52l-.49.13a.78.78,0,0,0-.58.82l.3,2.8a.65.65,0,0,1-.48.7,1.26,1.26,0,0,0-.87,1.56l1.36,4.59a1.24,1.24,0,0,0,1.51.85.87.87,0,0,1,1,.4l.1.16a.84.84,0,0,0,.94.39l.53-.15a.87.87,0,0,0,.59-1.07l0-.11a.42.42,0,0,1,.29-.52,1,1,0,0,0,.67-1.17l-1.19-5.06A1.13,1.13,0,0,0,364.08,331.41Z" style="fill:#407BFF"></path><g style="opacity:0.7000000000000001"><path d="M364.08,331.41a.52.52,0,0,1-.63-.37l-.67-2.62a.76.76,0,0,0-.95-.52l-.49.13a.78.78,0,0,0-.58.82l.3,2.8a.65.65,0,0,1-.48.7,1.26,1.26,0,0,0-.87,1.56l1.36,4.59a1.24,1.24,0,0,0,1.51.85.87.87,0,0,1,1,.4l.1.16a.84.84,0,0,0,.94.39l.53-.15a.87.87,0,0,0,.59-1.07l0-.11a.42.42,0,0,1,.29-.52,1,1,0,0,0,.67-1.17l-1.19-5.06A1.13,1.13,0,0,0,364.08,331.41Z" style="fill:#fff"></path></g><path d="M371.62,329.88a.45.45,0,0,1-.54-.37l-.38-2.41a.71.71,0,0,0-.85-.54l-.48.08a.72.72,0,0,0-.61.7l.07,2.55a.59.59,0,0,1-.48.59,1.12,1.12,0,0,0-.88,1.35l1,4.2a1.12,1.12,0,0,0,1.28.87.74.74,0,0,1,.81.41l.08.16a.73.73,0,0,0,.78.41l.46-.07a.77.77,0,0,0,.56-.9l0-.11a.38.38,0,0,1,.3-.44.84.84,0,0,0,.65-1l-.54-4.65A1,1,0,0,0,371.62,329.88Z" style="fill:#407BFF"></path><g style="opacity:0.7000000000000001"><path d="M371.62,329.88a.45.45,0,0,1-.54-.37l-.38-2.41a.71.71,0,0,0-.85-.54l-.48.08a.72.72,0,0,0-.61.7l.07,2.55a.59.59,0,0,1-.48.59,1.12,1.12,0,0,0-.88,1.35l1,4.2a1.12,1.12,0,0,0,1.28.87.74.74,0,0,1,.81.41l.08.16a.73.73,0,0,0,.78.41l.46-.07a.77.77,0,0,0,.56-.9l0-.11a.38.38,0,0,1,.3-.44.84.84,0,0,0,.65-1l-.54-4.65A1,1,0,0,0,371.62,329.88Z" style="fill:#fff"></path></g><path d="M375.11,330.45s2.69-1.87,4.24.17c0,0,4.64-3,6.73-.17,0,0,3.31-1.87,5.38,1,0,0,4.13-2.19,6.16.91,0,0,4.27-1.75,5.69,1.92,0,0,3.91-2,5.07.81,0,0,4.3-.29,4.59,3.3,0,0,3.46-.6,3.65,2.87,0,0,7.64,7.56,5.88,7.81-1.22.17-7.05-5.79-7.05-5.79s-3.34-.16-4.06-2.5c0,0-4-.58-3.53-2.65a3.48,3.48,0,0,1-5.17-1.08s-4.56,1.76-5.3-1.78c0,0-4,2.65-5.95-.86,0,0-4,2.36-5.57-.71a4.65,4.65,0,0,1-6.91.2s-2,2.84-3.45.57Z" style="fill:#407BFF"></path><path d="M375.11,330.45s2.69-1.87,4.24.17c0,0,4.64-3,6.73-.17,0,0,3.31-1.87,5.38,1,0,0,4.13-2.19,6.16.91,0,0,4.27-1.75,5.69,1.92,0,0,3.91-2,5.07.81,0,0,4.3-.29,4.59,3.3,0,0,3.46-.6,3.65,2.87,0,0,7.64,7.56,5.88,7.81-1.22.17-7.05-5.79-7.05-5.79s-3.34-.16-4.06-2.5c0,0-4-.58-3.53-2.65a3.48,3.48,0,0,1-5.17-1.08s-4.56,1.76-5.3-1.78c0,0-4,2.65-5.95-.86,0,0-4,2.36-5.57-.71a4.65,4.65,0,0,1-6.91.2s-2,2.84-3.45.57Z" style="fill:#fff;opacity:0.7000000000000001"></path><path d="M188.92,101.88a1,1,0,0,1,0-1.25l3.21-2.49c.48-.37.37-1.4-.43-2.22-.3-.32-.6-.64-.93-.93-.75-.71-1.69-.93-2.14-.58a36.6,36.6,0,0,0-3.29,2.78,1.36,1.36,0,0,1-1.53,0,2.37,2.37,0,0,0-1.77-.25A1.64,1.64,0,0,0,181,98l-2.42,6.76a3.84,3.84,0,0,0-.22,1.33c0,.38.07.62.21.71s.11.52-.19,1l-.15.24c-.29.48-.47.8-.42.86s.06.06.09.09a2.43,2.43,0,0,0,1.24-.59l.14-.11c.29-.22.59-.28.68-.15h0c.19.27.92.27,1.65-.09l6.93-3.58a1.43,1.43,0,0,0,.76-1.06A2,2,0,0,0,188.92,101.88Z" style="fill:#407BFF"></path><g style="opacity:0.7000000000000001"><path d="M188.92,101.88a1,1,0,0,1,0-1.25l3.21-2.49c.48-.37.37-1.4-.43-2.22-.3-.32-.6-.64-.93-.93-.75-.71-1.69-.93-2.14-.58a36.6,36.6,0,0,0-3.29,2.78,1.36,1.36,0,0,1-1.53,0,2.37,2.37,0,0,0-1.77-.25A1.64,1.64,0,0,0,181,98l-2.42,6.76a3.84,3.84,0,0,0-.22,1.33c0,.38.07.62.21.71s.11.52-.19,1l-.15.24c-.29.48-.47.8-.42.86s.06.06.09.09a2.43,2.43,0,0,0,1.24-.59l.14-.11c.29-.22.59-.28.68-.15h0c.19.27.92.27,1.65-.09l6.93-3.58a1.43,1.43,0,0,0,.76-1.06A2,2,0,0,0,188.92,101.88Z" style="fill:#fff"></path></g><path d="M193.6,113.33a.81.81,0,0,1,.65-.94l4-.53a1.29,1.29,0,0,0,.89-1.62l-.18-.95a1.44,1.44,0,0,0-1.25-1.29c-1.43,0-2.84.13-4.25.25a1.17,1.17,0,0,1-1.12-.86,1.91,1.91,0,0,0-2.53-1.32l-6.53,3c-.92.45-1.51,1.2-1.31,1.78.11.35-.16.77-.69,1l-.25.12c-.52.26-.8.6-.74,1l.1.55c.08.46.71.81,1.44.72l.17,0a.79.79,0,0,1,.49.09.43.43,0,0,1,.16.14.21.21,0,0,1,0,.13c0,.43.67.78,1.48.79H192A1.76,1.76,0,0,0,193.6,113.33Z" style="fill:#407BFF"></path><g style="opacity:0.7000000000000001"><path d="M193.6,113.33a.81.81,0,0,1,.65-.94l4-.53a1.29,1.29,0,0,0,.89-1.62l-.18-.95a1.44,1.44,0,0,0-1.25-1.29c-1.43,0-2.84.13-4.25.25a1.17,1.17,0,0,1-1.12-.86,1.91,1.91,0,0,0-2.53-1.32l-6.53,3c-.92.45-1.51,1.2-1.31,1.78.11.35-.16.77-.69,1l-.25.12c-.52.26-.8.6-.74,1l.1.55c.08.46.71.81,1.44.72l.17,0a.79.79,0,0,1,.49.09.43.43,0,0,1,.16.14.21.21,0,0,1,0,.13c0,.43.67.78,1.48.79H192A1.76,1.76,0,0,0,193.6,113.33Z" style="fill:#fff"></path></g><path d="M192.55,125.58a.82.82,0,0,1,1-.65l4.23,1a1.31,1.31,0,0,0,1.47-1.09c.06-.3.13-.56.18-.88a1.43,1.43,0,0,0-.75-1.62c-1.42-.52-2.85-1-4.28-1.48a1.14,1.14,0,0,1-.7-1.24,2,2,0,0,0-1.82-2.35l-7.66-.3c-1.1,0-2.05.56-2.1,1.31a1.21,1.21,0,0,1-1.17.92l-.3,0a1.16,1.16,0,0,0-1.14.85c0,.22-.11.5-.16.74a1.33,1.33,0,0,0,1.12,1.48l.18,0a.66.66,0,0,1,.55.75,1.52,1.52,0,0,0,1.15,1.77l8.05,2.12A1.78,1.78,0,0,0,192.55,125.58Z" style="fill:#407BFF"></path><g style="opacity:0.7000000000000001"><path d="M192.55,125.58a.82.82,0,0,1,1-.65l4.23,1a1.31,1.31,0,0,0,1.47-1.09c.06-.3.13-.56.18-.88a1.43,1.43,0,0,0-.75-1.62c-1.42-.52-2.85-1-4.28-1.48a1.14,1.14,0,0,1-.7-1.24,2,2,0,0,0-1.82-2.35l-7.66-.3c-1.1,0-2.05.56-2.1,1.31a1.21,1.21,0,0,1-1.17.92l-.3,0a1.16,1.16,0,0,0-1.14.85c0,.22-.11.5-.16.74a1.33,1.33,0,0,0,1.12,1.48l.18,0a.66.66,0,0,1,.55.75,1.52,1.52,0,0,0,1.15,1.77l8.05,2.12A1.78,1.78,0,0,0,192.55,125.58Z" style="fill:#fff"></path></g><path d="M189.11,137.28a.88.88,0,0,1,1.09-.57l4.38,1.42a1.29,1.29,0,0,0,1.61-.86l.26-.8a1.35,1.35,0,0,0-.64-1.6l-4.3-2.12a1.1,1.1,0,0,1-.57-1.32,2.12,2.12,0,0,0-1.45-2.67l-7.86-2.14a2.07,2.07,0,0,0-2.58,1.33,1.47,1.47,0,0,1-1.43,1h-.32a1.42,1.42,0,0,0-1.4,1l-.29.91a1.46,1.46,0,0,0,1,1.83l.18.06a.74.74,0,0,1,.49.92,1.65,1.65,0,0,0,1.07,2.05l8.38,2.8A1.88,1.88,0,0,0,189.11,137.28Z" style="fill:#407BFF"></path><g style="opacity:0.7000000000000001"><path d="M189.11,137.28a.88.88,0,0,1,1.09-.57l4.38,1.42a1.29,1.29,0,0,0,1.61-.86l.26-.8a1.35,1.35,0,0,0-.64-1.6l-4.3-2.12a1.1,1.1,0,0,1-.57-1.32,2.12,2.12,0,0,0-1.45-2.67l-7.86-2.14a2.07,2.07,0,0,0-2.58,1.33,1.47,1.47,0,0,1-1.43,1h-.32a1.42,1.42,0,0,0-1.4,1l-.29.91a1.46,1.46,0,0,0,1,1.83l.18.06a.74.74,0,0,1,.49.92,1.65,1.65,0,0,0,1.07,2.05l8.38,2.8A1.88,1.88,0,0,0,189.11,137.28Z" style="fill:#fff"></path></g><path d="M185.18,148.7a.89.89,0,0,1,1.15-.56l4.61,1.59a1.34,1.34,0,0,0,1.71-.84l.28-.81a1.34,1.34,0,0,0-.64-1.63l-4.48-2.38a1.16,1.16,0,0,1-.56-1.4,2.25,2.25,0,0,0-1.41-2.86l-8.17-2.74a2.22,2.22,0,0,0-2.83,1.37,1.61,1.61,0,0,1-1.58,1.08h-.34a1.6,1.6,0,0,0-1.56,1.06l-.34,1a1.6,1.6,0,0,0,1,2l.19.07a.79.79,0,0,1,.49,1,1.76,1.76,0,0,0,1.09,2.24l8.85,3A2,2,0,0,0,185.18,148.7Z" style="fill:#407BFF"></path><g style="opacity:0.7000000000000001"><path d="M185.18,148.7a.89.89,0,0,1,1.15-.56l4.61,1.59a1.34,1.34,0,0,0,1.71-.84l.28-.81a1.34,1.34,0,0,0-.64-1.63l-4.48-2.38a1.16,1.16,0,0,1-.56-1.4,2.25,2.25,0,0,0-1.41-2.86l-8.17-2.74a2.22,2.22,0,0,0-2.83,1.37,1.61,1.61,0,0,1-1.58,1.08h-.34a1.6,1.6,0,0,0-1.56,1.06l-.34,1a1.6,1.6,0,0,0,1,2l.19.07a.79.79,0,0,1,.49,1,1.76,1.76,0,0,0,1.09,2.24l8.85,3A2,2,0,0,0,185.18,148.7Z" style="fill:#fff"></path></g><path d="M181.29,160a1,1,0,0,1,1.21-.6l4.89,1.62a1.39,1.39,0,0,0,1.77-.86l.28-.84a1.4,1.4,0,0,0-.69-1.69L184,155.17a1.22,1.22,0,0,1-.59-1.47,2.39,2.39,0,0,0-1.48-3l-8.61-2.95a2.37,2.37,0,0,0-3,1.49,1.72,1.72,0,0,1-1.67,1.17h-.37a1.7,1.7,0,0,0-1.64,1.16l-.36,1.08a1.7,1.7,0,0,0,1.06,2.16l.21.07a.85.85,0,0,1,.53,1.07,1.84,1.84,0,0,0,1.17,2.35l9.4,3A2.12,2.12,0,0,0,181.29,160Z" style="fill:#407BFF"></path><g style="opacity:0.7000000000000001"><path d="M181.29,160a1,1,0,0,1,1.21-.6l4.89,1.62a1.39,1.39,0,0,0,1.77-.86l.28-.84a1.4,1.4,0,0,0-.69-1.69L184,155.17a1.22,1.22,0,0,1-.59-1.47,2.39,2.39,0,0,0-1.48-3l-8.61-2.95a2.37,2.37,0,0,0-3,1.49,1.72,1.72,0,0,1-1.67,1.17h-.37a1.7,1.7,0,0,0-1.64,1.16l-.36,1.08a1.7,1.7,0,0,0,1.06,2.16l.21.07a.85.85,0,0,1,.53,1.07,1.84,1.84,0,0,0,1.17,2.35l9.4,3A2.12,2.12,0,0,0,181.29,160Z" style="fill:#fff"></path></g><path d="M177.74,172.31a1,1,0,0,1,1.25-.67l5.2,1.53a1.46,1.46,0,0,0,1.83-.95l.26-.87a1.47,1.47,0,0,0-.79-1.72l-5.07-2.47a1.25,1.25,0,0,1-.66-1.51,2.5,2.5,0,0,0-1.64-3.11L169,159.61a2.5,2.5,0,0,0-3.15,1.67,1.85,1.85,0,0,1-1.73,1.31h-.39a1.82,1.82,0,0,0-1.71,1.3l-.34,1.17a1.81,1.81,0,0,0,1.18,2.27l.22.06a.9.9,0,0,1,.59,1.12A2,2,0,0,0,165,171l10,2.82A2.24,2.24,0,0,0,177.74,172.31Z" style="fill:#407BFF"></path><g style="opacity:0.7000000000000001"><path d="M177.74,172.31a1,1,0,0,1,1.25-.67l5.2,1.53a1.46,1.46,0,0,0,1.83-.95l.26-.87a1.47,1.47,0,0,0-.79-1.72l-5.07-2.47a1.25,1.25,0,0,1-.66-1.51,2.5,2.5,0,0,0-1.64-3.11L169,159.61a2.5,2.5,0,0,0-3.15,1.67,1.85,1.85,0,0,1-1.73,1.31h-.39a1.82,1.82,0,0,0-1.71,1.3l-.34,1.17a1.81,1.81,0,0,0,1.18,2.27l.22.06a.9.9,0,0,1,.59,1.12A2,2,0,0,0,165,171l10,2.82A2.24,2.24,0,0,0,177.74,172.31Z" style="fill:#fff"></path></g><path d="M174.57,184.38a1,1,0,0,1,1.21-.73l5.27,1.26a1.46,1.46,0,0,0,1.78-1L183,183a1.46,1.46,0,0,0-.89-1.65L177,179.15a1.26,1.26,0,0,1-.73-1.48,2.49,2.49,0,0,0-1.77-3l-9.23-2.56a2.52,2.52,0,0,0-3.08,1.83,1.9,1.9,0,0,1-1.69,1.41l-.39,0a1.79,1.79,0,0,0-1.64,1.42l-.29,1.2a1.8,1.8,0,0,0,1.28,2.23l.23.06a.89.89,0,0,1,.64,1.09,2,2,0,0,0,1.44,2.41L171.91,186A2.25,2.25,0,0,0,174.57,184.38Z" style="fill:#407BFF"></path><g style="opacity:0.7000000000000001"><path d="M174.57,184.38a1,1,0,0,1,1.21-.73l5.27,1.26a1.46,1.46,0,0,0,1.78-1L183,183a1.46,1.46,0,0,0-.89-1.65L177,179.15a1.26,1.26,0,0,1-.73-1.48,2.49,2.49,0,0,0-1.77-3l-9.23-2.56a2.52,2.52,0,0,0-3.08,1.83,1.9,1.9,0,0,1-1.69,1.41l-.39,0a1.79,1.79,0,0,0-1.64,1.42l-.29,1.2a1.8,1.8,0,0,0,1.28,2.23l.23.06a.89.89,0,0,1,.64,1.09,2,2,0,0,0,1.44,2.41L171.91,186A2.25,2.25,0,0,0,174.57,184.38Z" style="fill:#fff"></path></g><path d="M172.18,196.53a1,1,0,0,1,1.16-.8l5.34.87a1.45,1.45,0,0,0,1.71-1.11l.14-.86a1.45,1.45,0,0,0-1-1.56l-5.31-1.87a1.24,1.24,0,0,1-.81-1.42,2.49,2.49,0,0,0-2-2.9l-9.37-2a2.54,2.54,0,0,0-3,2,1.92,1.92,0,0,1-1.61,1.53l-.39.05a1.86,1.86,0,0,0-1.54,1.56l-.21,1.25a1.82,1.82,0,0,0,1.43,2.16l.23,0a.89.89,0,0,1,.71,1.06,2,2,0,0,0,1.63,2.32l10.3,1.46A2.23,2.23,0,0,0,172.18,196.53Z" style="fill:#407BFF"></path><g style="opacity:0.7000000000000001"><path d="M172.18,196.53a1,1,0,0,1,1.16-.8l5.34.87a1.45,1.45,0,0,0,1.71-1.11l.14-.86a1.45,1.45,0,0,0-1-1.56l-5.31-1.87a1.24,1.24,0,0,1-.81-1.42,2.49,2.49,0,0,0-2-2.9l-9.37-2a2.54,2.54,0,0,0-3,2,1.92,1.92,0,0,1-1.61,1.53l-.39.05a1.86,1.86,0,0,0-1.54,1.56l-.21,1.25a1.82,1.82,0,0,0,1.43,2.16l.23,0a.89.89,0,0,1,.71,1.06,2,2,0,0,0,1.63,2.32l10.3,1.46A2.23,2.23,0,0,0,172.18,196.53Z" style="fill:#fff"></path></g><path d="M170.82,208.74a1,1,0,0,1,1.09-.9l5.4.37a1.46,1.46,0,0,0,1.6-1.23l.06-.85a1.42,1.42,0,0,0-1.14-1.44l-5.47-1.39a1.22,1.22,0,0,1-.92-1.33h0a2.48,2.48,0,0,0-2.17-2.72l-9.5-1.28a2.56,2.56,0,0,0-2.81,2.31,2,2,0,0,1-1.48,1.69l-.38.09a1.89,1.89,0,0,0-1.39,1.73l-.1,1.28a1.82,1.82,0,0,0,1.61,2.06l.23,0a.9.9,0,0,1,.8,1,2,2,0,0,0,1.86,2.19l10.4.43A2.22,2.22,0,0,0,170.82,208.74Z" style="fill:#407BFF"></path><g style="opacity:0.7000000000000001"><path d="M170.82,208.74a1,1,0,0,1,1.09-.9l5.4.37a1.46,1.46,0,0,0,1.6-1.23l.06-.85a1.42,1.42,0,0,0-1.14-1.44l-5.47-1.39a1.22,1.22,0,0,1-.92-1.33h0a2.48,2.48,0,0,0-2.17-2.72l-9.5-1.28a2.56,2.56,0,0,0-2.81,2.31,2,2,0,0,1-1.48,1.69l-.38.09a1.89,1.89,0,0,0-1.39,1.73l-.1,1.28a1.82,1.82,0,0,0,1.61,2.06l.23,0a.9.9,0,0,1,.8,1,2,2,0,0,0,1.86,2.19l10.4.43A2.22,2.22,0,0,0,170.82,208.74Z" style="fill:#fff"></path></g><path d="M170.78,220.89a1,1,0,0,1,1-1l5.41-.27a1.44,1.44,0,0,0,1.45-1.37l0-.83a1.4,1.4,0,0,0-1.3-1.27c-1.86-.24-3.73-.5-5.59-.77a1.19,1.19,0,0,1-1.06-1.21,2.47,2.47,0,0,0-2.43-2.47l-9.58-.31a2.59,2.59,0,0,0-2.57,2.63,2.06,2.06,0,0,1-1.28,1.88l-.36.13a1.91,1.91,0,0,0-1.19,1.91l0,1.32a1.84,1.84,0,0,0,1.83,1.9l.23,0a.91.91,0,0,1,.91.92,2.07,2.07,0,0,0,2.14,2l10.37-.87A2.16,2.16,0,0,0,170.78,220.89Z" style="fill:#407BFF"></path><g style="opacity:0.7000000000000001"><path d="M170.78,220.89a1,1,0,0,1,1-1l5.41-.27a1.44,1.44,0,0,0,1.45-1.37l0-.83a1.4,1.4,0,0,0-1.3-1.27c-1.86-.24-3.73-.5-5.59-.77a1.19,1.19,0,0,1-1.06-1.21,2.47,2.47,0,0,0-2.43-2.47l-9.58-.31a2.59,2.59,0,0,0-2.57,2.63,2.06,2.06,0,0,1-1.28,1.88l-.36.13a1.91,1.91,0,0,0-1.19,1.91l0,1.32a1.84,1.84,0,0,0,1.83,1.9l.23,0a.91.91,0,0,1,.91.92,2.07,2.07,0,0,0,2.14,2l10.37-.87A2.16,2.16,0,0,0,170.78,220.89Z" style="fill:#fff"></path></g><path d="M172.34,232.83a1,1,0,0,1,.82-1.13l5.31-1a1.43,1.43,0,0,0,1.26-1.53l-.13-.8a1.38,1.38,0,0,0-1.45-1c-1.88,0-3.76,0-5.65,0a1.19,1.19,0,0,1-1.23-1,2.43,2.43,0,0,0-2.71-2.11L159,225a2.61,2.61,0,0,0-2.22,3,2.09,2.09,0,0,1-1,2.07l-.34.18a2,2,0,0,0-.92,2.09l.22,1.33a1.85,1.85,0,0,0,2.08,1.66l.23,0a1,1,0,0,1,1.06.79,2.09,2.09,0,0,0,2.41,1.68l10.13-2.41A2.14,2.14,0,0,0,172.34,232.83Z" style="fill:#407BFF"></path><g style="opacity:0.7000000000000001"><path d="M172.34,232.83a1,1,0,0,1,.82-1.13l5.31-1a1.43,1.43,0,0,0,1.26-1.53l-.13-.8a1.38,1.38,0,0,0-1.45-1c-1.88,0-3.76,0-5.65,0a1.19,1.19,0,0,1-1.23-1,2.43,2.43,0,0,0-2.71-2.11L159,225a2.61,2.61,0,0,0-2.22,3,2.09,2.09,0,0,1-1,2.07l-.34.18a2,2,0,0,0-.92,2.09l.22,1.33a1.85,1.85,0,0,0,2.08,1.66l.23,0a1,1,0,0,1,1.06.79,2.09,2.09,0,0,0,2.41,1.68l10.13-2.41A2.14,2.14,0,0,0,172.34,232.83Z" style="fill:#fff"></path></g><path d="M175.72,244.28a1,1,0,0,1,.61-1.24l5.07-1.89a1.46,1.46,0,0,0,1-1.7l-.25-.75a1.38,1.38,0,0,0-1.59-.78c-1.85.32-3.71.63-5.57.91a1.24,1.24,0,0,1-1.4-.82h0a2.41,2.41,0,0,0-3-1.67l-9.29,2.33a2.65,2.65,0,0,0-1.75,3.32h0a2,2,0,0,1-.62,2.22l-.32.24a2,2,0,0,0-.56,2.24l.43,1.29a1.84,1.84,0,0,0,2.32,1.33l.21-.08a1,1,0,0,1,1.21.61,2.08,2.08,0,0,0,2.66,1.26l9.58-4A2.15,2.15,0,0,0,175.72,244.28Z" style="fill:#407BFF"></path><g style="opacity:0.7000000000000001"><path d="M175.72,244.28a1,1,0,0,1,.61-1.24l5.07-1.89a1.46,1.46,0,0,0,1-1.7l-.25-.75a1.38,1.38,0,0,0-1.59-.78c-1.85.32-3.71.63-5.57.91a1.24,1.24,0,0,1-1.4-.82h0a2.41,2.41,0,0,0-3-1.67l-9.29,2.33a2.65,2.65,0,0,0-1.75,3.32h0a2,2,0,0,1-.62,2.22l-.32.24a2,2,0,0,0-.56,2.24l.43,1.29a1.84,1.84,0,0,0,2.32,1.33l.21-.08a1,1,0,0,1,1.21.61,2.08,2.08,0,0,0,2.66,1.26l9.58-4A2.15,2.15,0,0,0,175.72,244.28Z" style="fill:#fff"></path></g><path d="M181,255a1,1,0,0,1,.39-1.33L186,250.9a1.46,1.46,0,0,0,.71-1.84l-.37-.7a1.37,1.37,0,0,0-1.7-.49q-2.66.94-5.34,1.85a1.25,1.25,0,0,1-1.52-.57,2.42,2.42,0,0,0-3.21-1.14l-8.77,3.85a2.69,2.69,0,0,0-1.16,3.6,2,2,0,0,1-.23,2.29l-.26.29a2,2,0,0,0-.18,2.31l.65,1.21a1.85,1.85,0,0,0,2.52.91l.19-.11a1,1,0,0,1,1.29.39,2.09,2.09,0,0,0,2.84.78l8.74-5.64A2.12,2.12,0,0,0,181,255Z" style="fill:#407BFF"></path><g style="opacity:0.7000000000000001"><path d="M181,255a1,1,0,0,1,.39-1.33L186,250.9a1.46,1.46,0,0,0,.71-1.84l-.37-.7a1.37,1.37,0,0,0-1.7-.49q-2.66.94-5.34,1.85a1.25,1.25,0,0,1-1.52-.57,2.42,2.42,0,0,0-3.21-1.14l-8.77,3.85a2.69,2.69,0,0,0-1.16,3.6,2,2,0,0,1-.23,2.29l-.26.29a2,2,0,0,0-.18,2.31l.65,1.21a1.85,1.85,0,0,0,2.52.91l.19-.11a1,1,0,0,1,1.29.39,2.09,2.09,0,0,0,2.84.78l8.74-5.64A2.12,2.12,0,0,0,181,255Z" style="fill:#fff"></path></g><path d="M188,264.63a1,1,0,0,1,.19-1.39l4.16-3.47a1.43,1.43,0,0,0,.38-1.93l-.5-.63a1.38,1.38,0,0,0-1.77-.21c-1.64.92-3.3,1.83-5,2.72a1.19,1.19,0,0,1-1.58-.32,2.41,2.41,0,0,0-3.36-.57l-8,5.29a2.67,2.67,0,0,0-.53,3.73,2.11,2.11,0,0,1,.14,2.3l-.22.33a2,2,0,0,0,.22,2.28l.84,1.06a1.85,1.85,0,0,0,2.63.46l.18-.14a.91.91,0,0,1,1.29.2,2.07,2.07,0,0,0,2.91.29l7.73-7A2.18,2.18,0,0,0,188,264.63Z" style="fill:#407BFF"></path><g style="opacity:0.7000000000000001"><path d="M188,264.63a1,1,0,0,1,.19-1.39l4.16-3.47a1.43,1.43,0,0,0,.38-1.93l-.5-.63a1.38,1.38,0,0,0-1.77-.21c-1.64.92-3.3,1.83-5,2.72a1.19,1.19,0,0,1-1.58-.32,2.41,2.41,0,0,0-3.36-.57l-8,5.29a2.67,2.67,0,0,0-.53,3.73,2.11,2.11,0,0,1,.14,2.3l-.22.33a2,2,0,0,0,.22,2.28l.84,1.06a1.85,1.85,0,0,0,2.63.46l.18-.14a.91.91,0,0,1,1.29.2,2.07,2.07,0,0,0,2.91.29l7.73-7A2.18,2.18,0,0,0,188,264.63Z" style="fill:#fff"></path></g><path d="M196.49,273.14a1,1,0,0,1,0-1.39l3.62-4a1.4,1.4,0,0,0,0-2l-.61-.55a1.45,1.45,0,0,0-1.83.06q-2.21,1.72-4.45,3.4a1.18,1.18,0,0,1-1.59-.1,2.47,2.47,0,0,0-3.45,0l-7,6.5a2.6,2.6,0,0,0,.07,3.71,2.08,2.08,0,0,1,.43,2.29l-.17.36a1.88,1.88,0,0,0,.54,2.19l1,.89a1.88,1.88,0,0,0,2.66,0l.16-.17a.92.92,0,0,1,1.3,0,2,2,0,0,0,2.85-.07l6.67-8A2.26,2.26,0,0,0,196.49,273.14Z" style="fill:#407BFF"></path><g style="opacity:0.7000000000000001"><path d="M196.49,273.14a1,1,0,0,1,0-1.39l3.62-4a1.4,1.4,0,0,0,0-2l-.61-.55a1.45,1.45,0,0,0-1.83.06q-2.21,1.72-4.45,3.4a1.18,1.18,0,0,1-1.59-.1,2.47,2.47,0,0,0-3.45,0l-7,6.5a2.6,2.6,0,0,0,.07,3.71,2.08,2.08,0,0,1,.43,2.29l-.17.36a1.88,1.88,0,0,0,.54,2.19l1,.89a1.88,1.88,0,0,0,2.66,0l.16-.17a.92.92,0,0,1,1.3,0,2,2,0,0,0,2.85-.07l6.67-8A2.26,2.26,0,0,0,196.49,273.14Z" style="fill:#fff"></path></g><path d="M166.18,72.64c-2.24,1.76-4.36,3.88-5.17,10.18s-17.45,8.4-17.13,16.32,6.14,6.47,9.21,5.82,12.29-5.82,16.49-5.33,7.59.8,10.82-1.62,6.95-4.85,5.66-11.64S174.06,66.48,166.18,72.64Z" style="fill:#407BFF"></path><path d="M166.18,72.64c-2.24,1.76-4.36,3.88-5.17,10.18s-17.45,8.4-17.13,16.32,6.14,6.47,9.21,5.82,12.29-5.82,16.49-5.33,7.59.8,10.82-1.62,6.95-4.85,5.66-11.64S174.06,66.48,166.18,72.64Z" style="fill:#fff;opacity:0.7000000000000001"></path><path d="M150.35,99.14c0,1.21-.51,2.18-1.14,2.18s-1.13-1-1.13-2.18.51-2.18,1.13-2.18S150.35,97.94,150.35,99.14Z" style="fill:#407BFF"></path><path d="M150.35,99.14c0,1.21-.51,2.18-1.14,2.18s-1.13-1-1.13-2.18.51-2.18,1.13-2.18S150.35,97.94,150.35,99.14Z" style="fill:#fff;opacity:0.5"></path><path d="M178.27,92.31c.4.7-.3,1.86-1.58,2.6s-2.63.76-3,.06.3-.89,1.58-1.63S177.87,91.61,178.27,92.31Z" style="fill:#407BFF"></path><path d="M178.27,92.31c.4.7-.3,1.86-1.58,2.6s-2.63.76-3,.06.3-.89,1.58-1.63S177.87,91.61,178.27,92.31Z" style="fill:#fff;opacity:0.5"></path><path d="M180.41,98c-3.24,2.42-6.63,2.1-10.83,1.62a8,8,0,0,0-2.32.16,61.46,61.46,0,0,1-5.6,6.16c-4.14,3.86-8.33,6.42-7.11,7.9,2.26,2.75,15.35-9.27,19-8.35s8.48,1.72,10.74-1.83c1.53-2.41.26-6.08-.73-8.21A31.53,31.53,0,0,1,180.41,98Z" style="fill:#407BFF"></path><path d="M180.41,98c-3.24,2.42-6.63,2.1-10.83,1.62a8,8,0,0,0-2.32.16,61.46,61.46,0,0,1-5.6,6.16c-4.14,3.86-8.33,6.42-7.11,7.9,2.26,2.75,15.35-9.27,19-8.35s8.48,1.72,10.74-1.83c1.53-2.41.26-6.08-.73-8.21A31.53,31.53,0,0,1,180.41,98Z" style="fill:#fff;opacity:0.5"></path><path d="M173.85,90c-2.48,2-7.19,3.32-9.33.63s-.89-8.41,1.59-10.38A6.25,6.25,0,0,1,173.85,90Z" style="fill:#407BFF"></path><path d="M173.85,90c-2.48,2-7.19,3.32-9.33.63s-.89-8.41,1.59-10.38A6.25,6.25,0,0,1,173.85,90Z" style="opacity:0.1"></path><path d="M167.63,79.45a6,6,0,0,0-.64,2.7,6.12,6.12,0,0,0,6.12,6.12,6.2,6.2,0,0,0,2.4-.49,6.29,6.29,0,0,0-1-6.18A6.16,6.16,0,0,0,167.63,79.45Z" style="fill:#407BFF"></path><path d="M167.63,79.45a6,6,0,0,0-.64,2.7,6.12,6.12,0,0,0,6.12,6.12,6.2,6.2,0,0,0,2.4-.49,6.29,6.29,0,0,0-1-6.18A6.16,6.16,0,0,0,167.63,79.45Z" style="fill:#fff;opacity:0.9"></path><path d="M176.2,301.8c-1.57-2.2-5.16-8.49,1.66-10.67s11.21.24,19.44-3.88,10.17-13.09,16.23-11.63,9.7,9,6.55,11.39-19.19,6.46-27.42,13.33S183.91,312.58,176.2,301.8Z" style="fill:#407BFF"></path><path d="M176.2,301.8c-1.57-2.2-5.16-8.49,1.66-10.67s11.21.24,19.44-3.88,10.17-13.09,16.23-11.63,9.7,9,6.55,11.39-19.19,6.46-27.42,13.33S183.91,312.58,176.2,301.8Z" style="fill:#fff;opacity:0.5"></path><path d="M225.82,293.91c-3.52-1.31-6.61-1.62-11.82,13.7s-9,36.71-5.91,36.71c1.93,0,2.76-12,7.43-25.94C220.13,304.63,230.59,295.68,225.82,293.91Z" style="fill:#407BFF"></path><path d="M215.91,291.93c-3.17-1.18-5.95-1.45-10.63,12.32s-8.09,33-5.31,33c1.73,0,2.48-10.8,6.68-23.32S220.2,293.53,215.91,291.93Z" style="fill:#407BFF"></path><path d="M235,297.11c-3.17-1.27-6-1.56-10.65,13.19s-8.12,35.35-5.33,35.35c1.74,0,2.49-11.56,6.7-25C229.85,307.43,239.29,298.82,235,297.11Z" style="fill:#407BFF"></path><path d="M243.45,302c-2.92-1.16-5.48-1.43-9.8,12.13s-7.46,32.51-4.9,32.51c1.6,0,2.29-10.63,6.16-23C238.73,311.49,247.4,303.57,243.45,302Z" style="fill:#407BFF"></path><path d="M250.79,307c-2.51-1-4.71-1.23-8.42,10.42s-6.4,27.91-4.21,27.91c1.38,0,2-9.13,5.29-19.72S254.18,308.37,250.79,307Z" style="fill:#407BFF"></path><path d="M258.62,309.8c-2.23-.88-4.18-1.09-7.48,9.26s-5.69,24.8-3.74,24.8c1.23,0,1.75-8.11,4.71-17.52S261.64,311,258.62,309.8Z" style="fill:#407BFF"></path><path d="M264.76,313.23c-1.89-.75-3.55-.92-6.34,7.84s-4.82,21-3.16,21c1,0,1.48-6.87,4-14.84S267.31,314.25,264.76,313.23Z" style="fill:#407BFF"></path><path d="M270.44,315.74c-1.64-.65-3.09-.81-5.52,6.84s-4.21,18.32-2.76,18.32c.9,0,1.29-6,3.47-12.95S272.67,316.63,270.44,315.74Z" style="fill:#407BFF"></path><g style="opacity:0.6000000000000001"><path d="M225.82,293.91c-3.52-1.31-6.61-1.62-11.82,13.7s-9,36.71-5.91,36.71c1.93,0,2.76-12,7.43-25.94C220.13,304.63,230.59,295.68,225.82,293.91Z" style="fill:#fff"></path><path d="M215.91,291.93c-3.17-1.18-5.95-1.45-10.63,12.32s-8.09,33-5.31,33c1.73,0,2.48-10.8,6.68-23.32S220.2,293.53,215.91,291.93Z" style="fill:#fff"></path><path d="M235,297.11c-3.17-1.27-6-1.56-10.65,13.19s-8.12,35.35-5.33,35.35c1.74,0,2.49-11.56,6.7-25C229.85,307.43,239.29,298.82,235,297.11Z" style="fill:#fff"></path><path d="M243.45,302c-2.92-1.16-5.48-1.43-9.8,12.13s-7.46,32.51-4.9,32.51c1.6,0,2.29-10.63,6.16-23C238.73,311.49,247.4,303.57,243.45,302Z" style="fill:#fff"></path><path d="M250.79,307c-2.51-1-4.71-1.23-8.42,10.42s-6.4,27.91-4.21,27.91c1.38,0,2-9.13,5.29-19.72S254.18,308.37,250.79,307Z" style="fill:#fff"></path><path d="M258.62,309.8c-2.23-.88-4.18-1.09-7.48,9.26s-5.69,24.8-3.74,24.8c1.23,0,1.75-8.11,4.71-17.52S261.64,311,258.62,309.8Z" style="fill:#fff"></path><path d="M264.76,313.23c-1.89-.75-3.55-.92-6.34,7.84s-4.82,21-3.16,21c1,0,1.48-6.87,4-14.84S267.31,314.25,264.76,313.23Z" style="fill:#fff"></path><path d="M270.44,315.74c-1.64-.65-3.09-.81-5.52,6.84s-4.21,18.32-2.76,18.32c.9,0,1.29-6,3.47-12.95S272.67,316.63,270.44,315.74Z" style="fill:#fff"></path></g><path d="M191.07,360.78c-.6-1.89-2.26-8.08,3.56-7.11s11-3.88,11.31,1.94-2.91,7.76-2.26,12.93,4.2,13.9.32,13.9-4.85-.65-7.76,0-7.65,1.29-5.6-4.85S193.13,367.32,191.07,360.78Z" style="fill:#407BFF"></path><path d="M191.07,360.78c-.6-1.89-2.26-8.08,3.56-7.11s11-3.88,11.31,1.94-2.91,7.76-2.26,12.93,4.2,13.9.32,13.9-4.85-.65-7.76,0-7.65,1.29-5.6-4.85S193.13,367.32,191.07,360.78Z" style="fill:#fff;opacity:0.7000000000000001"></path><path d="M192.87,384.62c-.94.26-2.24.94-1.37,3.66s1.61,11-.2,12.77-3,3.3-1.84,4.08,5.12-.78,6.22-3.16S201.27,382.33,192.87,384.62Z" style="fill:#407BFF"></path><path d="M192.87,384.62c-.94.26-2.24.94-1.37,3.66s1.61,11-.2,12.77-3,3.3-1.84,4.08,5.12-.78,6.22-3.16S201.27,382.33,192.87,384.62Z" style="fill:#fff;opacity:0.30000000000000004"></path><path d="M196.71,384.59c-1,.27-2.36,1-1.44,3.85s1.68,11.52-.22,13.39-3.1,3.46-1.92,4.28,5.37-.82,6.52-3.31S205.51,382.19,196.71,384.59Z" style="fill:#407BFF"></path><path d="M196.71,384.59c-1,.27-2.36,1-1.44,3.85s1.68,11.52-.22,13.39-3.1,3.46-1.92,4.28,5.37-.82,6.52-3.31S205.51,382.19,196.71,384.59Z" style="fill:#fff;opacity:0.5"></path><path d="M201.49,384.59c-1,.27-2.36,1-1.45,3.85s1.69,11.52-.21,13.39-3.1,3.46-1.92,4.28,5.37-.82,6.51-3.31S210.29,382.19,201.49,384.59Z" style="fill:#407BFF"></path><path d="M201.49,384.59c-1,.27-2.36,1-1.45,3.85s1.69,11.52-.21,13.39-3.1,3.46-1.92,4.28,5.37-.82,6.51-3.31S210.29,382.19,201.49,384.59Z" style="fill:#fff;opacity:0.7000000000000001"></path><path d="M189,299.13c.23,2.79-.7,6.3,1.49,10.91s3.34,20.85,1.18,26.66-2.88,13.82,3.18,14.06,10.6-.72,11.85-4.6-2.4-9.7-2.64-17-2.42-15.27-.48-20.36,4.36-12.61-.49-14.3-4.85,1.21-7.51,0S188.62,294.37,189,299.13Z" style="fill:#407BFF"></path><path d="M189,299.13c.23,2.79-.7,6.3,1.49,10.91s3.34,20.85,1.18,26.66-2.88,13.82,3.18,14.06,10.6-.72,11.85-4.6-2.4-9.7-2.64-17-2.42-15.27-.48-20.36,4.36-12.61-.49-14.3-4.85,1.21-7.51,0S188.62,294.37,189,299.13Z" style="fill:#fff;opacity:0.7000000000000001"></path><path d="M268.16,334c-.1-2-.65-2.75-4.37-6.95s0-14.38,9.54-11.31,28,20.36,25.53,27.79-7.33-.48-14-1.45-12.83,3.55-17.19.32S268.32,337.35,268.16,334Z" style="fill:#407BFF"></path><path d="M268.16,334c-.1-2-.65-2.75-4.37-6.95s0-14.38,9.54-11.31,28,20.36,25.53,27.79-7.33-.48-14-1.45-12.83,3.55-17.19.32S268.32,337.35,268.16,334Z" style="fill:#fff;opacity:0.5"></path><path d="M281.56,368.75c-.95-1-1.38-3.43-.82-5.48.92-3.41-3.56-14-7.06-17-1.82-1.6-7.89-7.61-1.35-10.05s11.26-4.14,12.19.86c.9,4.81-1,6.77.64,11.62s3.3,9.49,5.45,10.47,5.52,4.95,3,7.2c-2.75,2.48-4.65.68-5.95,2S283.92,371.22,281.56,368.75Z" style="fill:#407BFF"></path><path d="M281.56,368.75c-.95-1-1.38-3.43-.82-5.48.92-3.41-3.56-14-7.06-17-1.82-1.6-7.89-7.61-1.35-10.05s11.26-4.14,12.19.86c.9,4.81-1,6.77.64,11.62s3.3,9.49,5.45,10.47,5.52,4.95,3,7.2c-2.75,2.48-4.65.68-5.95,2S283.92,371.22,281.56,368.75Z" style="fill:#fff;opacity:0.7000000000000001"></path><path d="M303.24,391.6c-1.22,0-2.31.74-2,4.4s-3.54,10.6-5.34,11.24-3.33.93-2.77,2.1,5.07,1.44,7.89-1.53,5.93-8.65,5.15-12.68C305.52,392,304.41,391.57,303.24,391.6Z" style="fill:#407BFF"></path><path d="M303.24,391.6c-1.22,0-2.31.74-2,4.4s-3.54,10.6-5.34,11.24-3.33.93-2.77,2.1,5.07,1.44,7.89-1.53,5.93-8.65,5.15-12.68C305.52,392,304.41,391.57,303.24,391.6Z" style="fill:#fff;opacity:0.7000000000000001"></path><path d="M253.65,392.94c-1,.1-1.94.76-1.51,3.88s-2.47,9.26-4,9.9-2.8,1-2.26,1.94,4.41,1,6.67-1.72,4.63-7.72,3.75-11.13C255.63,393.14,254.65,392.85,253.65,392.94Z" style="fill:#407BFF"></path><path d="M253.65,392.94c-1,.1-1.94.76-1.51,3.88s-2.47,9.26-4,9.9-2.8,1-2.26,1.94,4.41,1,6.67-1.72,4.63-7.72,3.75-11.13C255.63,393.14,254.65,392.85,253.65,392.94Z" style="fill:#fff;opacity:0.7000000000000001"></path><path d="M141.32,326.5c15.93,13.73,40.15,9.89,57.11.79.85-.46.09-1.75-.76-1.3-16.29,8.75-39.91,12.7-55.29-.55-.73-.63-1.79.43-1.06,1.06Z" style="fill:#407BFF"></path><path d="M198.56,326.62c8.51,5.33,19.05,8.21,28.8,10,24.82,4.51,50.1.28,73.25-9.23.88-.37.49-1.82-.4-1.45-23.22,9.55-48.66,13.81-73.53,9-9.28-1.79-19.26-4.56-27.36-9.64-.82-.51-1.58.78-.76,1.3Z" style="fill:#407BFF"></path><path d="M198.21,323.31h1.51a1.35,1.35,0,0,1,1.35,1.35v86.66a0,0,0,0,1,0,0h-4.2a0,0,0,0,1,0,0V324.66A1.35,1.35,0,0,1,198.21,323.31Z" style="fill:#263238"></path><path d="M198.21,323.31h1.51a1.35,1.35,0,0,1,1.35,1.35v86.66a0,0,0,0,1,0,0h-4.2a0,0,0,0,1,0,0V324.66A1.35,1.35,0,0,1,198.21,323.31Z" style="fill:#fff;opacity:0.7000000000000001"></path><path d="M206.63,412.17H191.3a.92.92,0,0,1-.92-.92h0a.92.92,0,0,1,.92-.92h15.33a.92.92,0,0,1,.92.92h0A.92.92,0,0,1,206.63,412.17Z" style="fill:#263238"></path><path d="M206.63,412.17H191.3a.92.92,0,0,1-.92-.92h0a.92.92,0,0,1,.92-.92h15.33a.92.92,0,0,1,.92.92h0A.92.92,0,0,1,206.63,412.17Z" style="fill:#fff;opacity:0.5"></path><path d="M299.66,323.31h1.51a1.35,1.35,0,0,1,1.35,1.35v86.66a0,0,0,0,1,0,0h-4.2a0,0,0,0,1,0,0V324.66A1.35,1.35,0,0,1,299.66,323.31Z" style="fill:#263238"></path><path d="M299.66,323.31h1.51a1.35,1.35,0,0,1,1.35,1.35v86.66a0,0,0,0,1,0,0h-4.2a0,0,0,0,1,0,0V324.66A1.35,1.35,0,0,1,299.66,323.31Z" style="fill:#fff;opacity:0.7000000000000001"></path><path d="M308.08,412.17H292.75a.92.92,0,0,1-.92-.92h0a.92.92,0,0,1,.92-.92h15.33a.92.92,0,0,1,.91.92h0A.92.92,0,0,1,308.08,412.17Z" style="fill:#263238"></path><path d="M308.08,412.17H292.75a.92.92,0,0,1-.92-.92h0a.92.92,0,0,1,.92-.92h15.33a.92.92,0,0,1,.91.92h0A.92.92,0,0,1,308.08,412.17Z" style="fill:#fff;opacity:0.5"></path><path d="M141.1,323.31h1.51a1.35,1.35,0,0,1,1.35,1.35v86.66a0,0,0,0,1,0,0h-4.2a0,0,0,0,1,0,0V324.66a1.35,1.35,0,0,1,1.35-1.35Z" style="fill:#263238"></path><path d="M141.1,323.31h1.51a1.35,1.35,0,0,1,1.35,1.35v86.66a0,0,0,0,1,0,0h-4.2a0,0,0,0,1,0,0V324.66a1.35,1.35,0,0,1,1.35-1.35Z" style="fill:#fff;opacity:0.7000000000000001"></path><path d="M149.52,412.17H134.19a.92.92,0,0,1-.92-.92h0a.92.92,0,0,1,.92-.92h15.33a.92.92,0,0,1,.91.92h0A.92.92,0,0,1,149.52,412.17Z" style="fill:#263238"></path><path d="M149.52,412.17H134.19a.92.92,0,0,1-.92-.92h0a.92.92,0,0,1,.92-.92h15.33a.92.92,0,0,1,.91.92h0A.92.92,0,0,1,149.52,412.17Z" style="fill:#fff;opacity:0.5"></path></g><g id="freepik--Character--inject-73"><path d="M352.73,250.48s1.24-6.7,3.72-8,7.14-2.77,7.51-1.6-3.07,1.9-3.87,2.48,3.79,2.33,3,4.66-7.22,5.68-7.22,5.68Z" style="fill:#ce7a63"></path><path d="M325.77,237.46a17.44,17.44,0,0,1,8.42,7.87,143.68,143.68,0,0,1,6.49,15s8.2-6.27,11.63-11a.82.82,0,0,1,1.38.1,6.52,6.52,0,0,0,3,2.94.84.84,0,0,1,.36,1.28c-2.89,3.64-13.55,16.77-17,16.16-5.86-1-15.44-17.74-15.44-17.74Z" style="fill:#263238"></path><path d="M330,260.35a56.68,56.68,0,0,0,.07-15.6L327.86,247l-2.18,6.86C326.63,255.43,328.17,257.85,330,260.35Z" style="opacity:0.5"></path><path d="M333.93,212.51s3.92,2.9,1.59,4.29c0,0-.45,5.74-2.25,4S333.93,212.51,333.93,212.51Z" style="fill:#263238"></path><path d="M333.93,212.51s3.92,2.9,1.59,4.29c0,0-.45,5.74-2.25,4S333.93,212.51,333.93,212.51Z" style="opacity:0.4"></path><path d="M323.1,240.45c-3.7-2.24-3.87-5.16-2.7-7.79a17.41,17.41,0,0,1,1-1.92L317.74,225l-2.68-4.21c-.44,4.75-1.78,12.76-5.76,14.75a111.91,111.91,0,0,0,8.67,8.06C322.35,242.78,323.1,240.45,323.1,240.45Z" style="fill:#ce7a63"></path><path d="M321.39,230.74a17.41,17.41,0,0,0-1,1.92c-1.75-1-4-3.55-3.6-5.75a9,9,0,0,1,.94-1.95Z" style="opacity:0.2;isolation:isolate"></path><path d="M318.32,211.9c-2.69,5.75-4.56,9-3.31,13.42a8.24,8.24,0,0,0,14.23,3.21c3.9-4.3,7.58-13,3.44-18.28a8.38,8.38,0,0,0-14.36,1.65Z" style="fill:#ce7a63"></path><path d="M326.06,219.62c-.25.45-.21.95.08,1.12s.73-.06,1-.51a.83.83,0,0,0-.08-1.13C326.78,218.93,326.31,219.17,326.06,219.62Z" style="fill:#263238"></path><path d="M331.34,222.49c-.25.45-.21,1,.08,1.12s.72-.06,1-.51a.82.82,0,0,0-.08-1.13C332.05,221.8,331.58,222,331.34,222.49Z" style="fill:#263238"></path><path d="M329,220.48a22,22,0,0,0,0,5,3.12,3.12,0,0,1-2.4-.77Z" style="fill:#ba4d3c"></path><path d="M324.88,227.15a4.46,4.46,0,0,1-2.48-2.38.16.16,0,0,1,.06-.21.15.15,0,0,1,.2.06h0a4.23,4.23,0,0,0,2.84,2.4.14.14,0,0,1,.11.17h0a.16.16,0,0,1-.19.11A3.74,3.74,0,0,1,324.88,227.15Z" style="fill:#263238"></path><path d="M326.35,215.34a.31.31,0,0,1-.06-.13.3.3,0,0,1,.24-.34h0a2.89,2.89,0,0,1,2.57.82.3.3,0,0,1,0,.42h0a.32.32,0,0,1-.43,0,2.28,2.28,0,0,0-2-.66A.29.29,0,0,1,326.35,215.34Z" style="fill:#263238"></path><path d="M332.14,217.87a.22.22,0,0,1,0-.14.29.29,0,0,1,.33-.25h0a2.94,2.94,0,0,1,2.2,1.57.29.29,0,0,1-.16.38h0a.31.31,0,0,1-.4-.16,2.25,2.25,0,0,0-1.74-1.24A.3.3,0,0,1,332.14,217.87Z" style="fill:#263238"></path><path d="M315.74,216.64s4.69-.65,5.71-3.79,2.8-5,5.16-2.76,5.43,6.14,8.15,4.61c4.32-2.42.19-4.74.19-4.74s1-2-3.3-2.81c0,0-.55-2.33-4.62-1.52a3.91,3.91,0,0,0-5.1.69s-2.72-1-3.51,2.81a2.42,2.42,0,0,0-2.11,3S315.13,213.22,315.74,216.64Z" style="fill:#263238"></path><path d="M332.71,218.69a2.57,2.57,0,0,0-2.13.14,3.08,3.08,0,0,0-1.16,1l-.51-.27a2.89,2.89,0,0,0-1.48-3.76,2.57,2.57,0,0,0-2.13.14,3.25,3.25,0,0,0-1.11,1,4.38,4.38,0,0,0-.7-.46,43.82,43.82,0,0,0-6.17-1.45l-.08.49a43.08,43.08,0,0,1,6.05,1.41,4.36,4.36,0,0,1,.65.44,2.8,2.8,0,0,0-.15.3,2.9,2.9,0,0,0,1.46,3.81,2.45,2.45,0,0,0,.58.14,2.93,2.93,0,0,0,2.87-1.59l.48.25c0,.08-.08.15-.11.22a2.9,2.9,0,0,0,1.46,3.81,2,2,0,0,0,.59.15,2.59,2.59,0,0,0,1.55-.29,3.18,3.18,0,0,0,1.5-1.7A2.89,2.89,0,0,0,332.71,218.69Zm-4.28.79a2.26,2.26,0,1,1-4.18-1.61,2.73,2.73,0,0,1,1.27-1.44,2.21,2.21,0,0,1,1.27-.24,1.83,1.83,0,0,1,.46.12A2.4,2.4,0,0,1,328.43,219.48Zm5.28,2.84a2.62,2.62,0,0,1-1.27,1.44,2.07,2.07,0,0,1-1.73.12,2.39,2.39,0,0,1-1.17-3.17,2.64,2.64,0,0,1,1.26-1.44,2.13,2.13,0,0,1,1.27-.24,1.83,1.83,0,0,1,.46.12A2.4,2.4,0,0,1,333.71,222.32Z" style="fill:#263238"></path><path d="M313.39,215.88a6.71,6.71,0,0,0,1.16,4.41c1.16,1.61,2.74.63,3.27-1.31.48-1.74.45-4.67-1.12-5.56S313.57,213.92,313.39,215.88Z" style="fill:#ce7a63"></path><polygon points="321.72 416.73 321.21 424.5 312.87 424.67 311.94 415.79 321.33 416 321.72 416.73" style="fill:#ce7a63"></polygon><path d="M321.91,424.49a.17.17,0,0,1-.15-.15.18.18,0,0,1,.08-.2c.12-.07,2.89-1.73,4.23-1.39a1,1,0,0,1,.61.43.71.71,0,0,1,0,.82,3.42,3.42,0,0,1-2.34.67A14.48,14.48,0,0,1,321.91,424.49Zm.61-.27c1.5.16,3.52.1,3.88-.43.05-.07.1-.18,0-.42a.53.53,0,0,0-.38-.25,1.11,1.11,0,0,0-.36,0A8.8,8.8,0,0,0,322.52,424.22Z" style="fill:#407BFF"></path><path d="M321.81,424.48a.19.19,0,0,1-.09-.17c0-.1.18-2.26,1.18-3.13a1.44,1.44,0,0,1,1.05-.34c.52,0,.69.3.72.52.19.89-1.7,2.67-2.65,3.12a.11.11,0,0,1-.08,0A.2.2,0,0,1,321.81,424.48Zm2-3.28a1,1,0,0,0-.65.25,4.47,4.47,0,0,0-1,2.48c1-.61,2.21-2,2.15-2.54,0,0,0-.18-.38-.2Z" style="fill:#407BFF"></path><path d="M321.07,423.39l-8.75.19a.7.7,0,0,0-.67.56l-1.43,7.16a1.17,1.17,0,0,0,.91,1.38,1,1,0,0,0,.25,0c3.15-.12,5.95-.35,9.88-.43,4.63-.1,3.47.48,8.91.43,3.29,0,3.81-3.77,2.41-3.92-6.39-.66-7.09-2.57-9.6-4.8A2.79,2.79,0,0,0,321.07,423.39Z" style="fill:#263238"></path><polygon points="311.94 415.79 312.33 419.58 321.53 419.58 321.72 416.73 321.33 416 311.94 415.79" style="opacity:0.1"></polygon><path d="M321.53,291.6s7.29,37.91,6.7,60.07-5.24,62.7-5.24,62.7H311.32s-2-35,1.46-61.39c0,0-14.58-52.05-13.71-63.71S321.53,291.6,321.53,291.6Z" style="fill:#407BFF"></path><path d="M310.38,344.15c1.8-20.91-1.79-45.16-1.79-45.16l-6.24,12.48C304.82,322.92,308.15,335.81,310.38,344.15Z" style="opacity:0.2"></path><polygon points="309.86 412.97 310.11 416.84 324.22 416.84 324.39 412.91 309.86 412.97" style="fill:#407BFF"></polygon><polygon points="309.86 412.97 310.11 416.84 324.22 416.84 324.39 412.91 309.86 412.97" style="fill:#fff;opacity:0.30000000000000004"></polygon><polygon points="290.92 415.89 289.21 423.49 280.94 422.37 281.4 413.46 290.65 415.11 290.92 415.89" style="fill:#ce7a63"></polygon><path d="M289.91,423.59a.19.19,0,0,1-.14-.17.2.2,0,0,1,.12-.18c.13-.06,3.12-1.27,4.39-.73a1.05,1.05,0,0,1,.54.52.71.71,0,0,1-.1.82,3.41,3.41,0,0,1-2.41.3A14,14,0,0,1,289.91,423.59Zm.64-.17c1.45.38,3.46.64,3.9.17.06,0,.12-.16,0-.41a.52.52,0,0,0-.33-.32,1.39,1.39,0,0,0-.35-.09A8.7,8.7,0,0,0,290.55,423.42Z" style="fill:#407BFF"></path><path d="M289.81,423.57a.18.18,0,0,1-.06-.18c0-.1.52-2.21,1.64-2.91a1.4,1.4,0,0,1,1.09-.18c.52.12.64.4.63.62.05.92-2.09,2.38-3.1,2.68a.06.06,0,0,1-.07,0A.19.19,0,0,1,289.81,423.57Zm2.5-2.93a1,1,0,0,0-.68.15,4.35,4.35,0,0,0-1.38,2.29c1.06-.45,2.49-1.63,2.52-2.17,0-.05,0-.19-.35-.27Z" style="fill:#407BFF"></path><path d="M289.24,422.37l-8.67-1.16a.68.68,0,0,0-.75.45l-2.52,6.85A1.17,1.17,0,0,0,278,430a1.4,1.4,0,0,0,.24.06c3.13.36,5.93.57,9.82,1.09,4.6.62,3.36,1,8.75,1.82,3.25.48,4.34-3.14,3-3.51-6.21-1.64-6.6-3.64-8.74-6.22A2.82,2.82,0,0,0,289.24,422.37Z" style="fill:#263238"></path><polygon points="281.39 413.46 281.2 417.26 290.29 418.69 290.92 415.89 290.65 415.11 281.39 413.46" style="opacity:0.1"></polygon><path d="M309.89,289.85s-1,45.49-3.85,64.45-13.67,60.07-13.67,60.07L281,412.62s3.77-42.29,10.35-60.51c0,0-5.93-27.87-4.22-46.22s4.22-21.26,4.22-21.26Z" style="fill:#407BFF"></path><polygon points="279.9 410.5 279.54 414.37 293.1 416.56 294.25 412.76 279.9 410.5" style="fill:#407BFF"></polygon><polygon points="279.9 410.5 279.54 414.37 293.1 416.56 294.25 412.76 279.9 410.5" style="fill:#fff;opacity:0.30000000000000004"></polygon><path d="M288.82,287.54S292,230.29,303,231.72s22.84,4.92,26.8,7.9-3.12,19.88-5.65,31.29A72.56,72.56,0,0,0,323,293.09s.5,2.2-19.09-.63C288.4,290.21,288.82,287.54,288.82,287.54Z" style="fill:#263238"></path><path d="M321.74,238.36s2.32-1.93,1.76-3.71c-.83-2.63-4.15-2-6.86-2.55a25.24,25.24,0,0,1-5.83-2.39c-1.1-.47-2.16,4.38-2.16,4.38Z" style="fill:#263238"></path><path d="M311.92,235.16s5.4,3.19,10.46,2.3C322.38,237.46,318.84,241.41,311.92,235.16Z" style="opacity:0.5"></path><path d="M291.64,260c5-6.83,8.2-18.82,8.2-18.82l-5.08,3.09A142.6,142.6,0,0,0,291.64,260Z" style="opacity:0.5"></path><path d="M283.91,279.94l.78,3.06a1.86,1.86,0,0,0,.45.81c1.22,1.26,5.36,5.87,4,8.74s-6.34,2-6.92.51c-.23-.6-.09-2.15-.51-3.57a24.09,24.09,0,0,0-1.78-4.15,1.25,1.25,0,0,1-.14-.5l-.34-3.81Z" style="fill:#ce7a63"></path><path d="M304.7,232c-1.73-.25-5.24-1.39-12.35,5.32s-14.91,12.27-15.58,22.2c-.56,8.13,1.89,19.6,2.38,23.06a.68.68,0,0,0,1,.48,5.78,5.78,0,0,1,4.15-.46.68.68,0,0,0,.79-.62l.56-22.83S312.21,233,304.7,232Z" style="fill:#263238"></path></g><g id="freepik--Artefacts--inject-73"><rect x="322.96" y="341.96" width="39.87" height="91.89" style="fill:#407BFF"></rect><rect x="361.37" y="341.96" width="76.44" height="91.89" style="fill:#407BFF"></rect><rect x="361.37" y="317.31" width="76.44" height="29.12" style="fill:#407BFF"></rect><rect x="361.37" y="317.31" width="76.44" height="29.12" style="fill:#fff;opacity:0.8"></rect><rect x="322.96" y="341.96" width="39.87" height="91.89" style="fill:#fff;opacity:0.2"></rect><rect x="322.96" y="317.31" width="39.87" height="29.12" style="fill:#407BFF"></rect><rect x="322.96" y="317.31" width="39.87" height="29.12" style="fill:#fff;opacity:0.7000000000000001"></rect><rect x="347.07" y="343.43" width="1.52" height="10.07" style="fill:#407BFF"></rect><rect x="378.2" y="340.43" width="1.52" height="13.07" style="fill:#407BFF"></rect><path d="M357.69,335.44s-2.1-3.4-4.75-3a54.54,54.54,0,0,0-7.22,2S334,336.81,334,338.86c0,1.77,9.39,3.57,11.87,4.77s7.24,2.59,10.05,1.39S357.69,335.44,357.69,335.44Z" style="fill:#263238"></path><path d="M357.69,335.44s-2.1-3.4-4.75-3a54.54,54.54,0,0,0-7.22,2S334,336.81,334,338.86c0,1.77,9.39,3.57,11.87,4.77s7.24,2.59,10.05,1.39S357.69,335.44,357.69,335.44Z" style="fill:#fff;opacity:0.30000000000000004"></path><path d="M357.85,339.32c-.64,2.65-9,2.38-11.33.89-1.91-1.23-9.75-1.29-12.55-1.28.25,1.75,9.4,3.51,11.85,4.7s7.24,2.59,10.05,1.39C357.38,344.38,357.79,341.69,357.85,339.32Z" style="opacity:0.2"></path><rect x="355.35" y="337.24" width="33.49" height="3.79" rx="1.13" style="fill:#407BFF"></rect><rect x="355.35" y="337.24" width="33.49" height="3.79" rx="1.13" style="fill:#fff;opacity:0.2"></rect><path d="M346.29,334.56a27.31,27.31,0,0,1,10,10.08.45.45,0,0,0,.77-.45,28.28,28.28,0,0,0-10.28-10.41.45.45,0,0,0-.46.78Z" style="fill:#407BFF"></path><g style="opacity:0.6000000000000001"><path d="M346.29,334.56a27.31,27.31,0,0,1,10,10.08.45.45,0,0,0,.77-.45,28.28,28.28,0,0,0-10.28-10.41.45.45,0,0,0-.46.78Z" style="fill:#fff"></path></g><path d="M356.42,333.78a25.71,25.71,0,0,0-10.05,10,.45.45,0,0,0,.78.46,24.8,24.8,0,0,1,9.72-9.66c.52-.27.06-1-.45-.78Z" style="fill:#407BFF"></path><g style="opacity:0.8"><path d="M356.42,333.78a25.71,25.71,0,0,0-10.05,10,.45.45,0,0,0,.78.46,24.8,24.8,0,0,1,9.72-9.66c.52-.27.06-1-.45-.78Z" style="fill:#fff"></path></g><rect x="414.75" y="340.43" width="1.53" height="13.07" style="fill:#407BFF"></rect><path d="M406.31,337.18a7.73,7.73,0,0,1,2.91-7.23c3.83-3.34,9.46-2.41,12.74,0s7.85,6.8,3.65,15-11.57.93-11.57.93-1.76.63-6.61-1.11c-4-1.42-2.11-2.6-2.11-2.6S404.27,340.77,406.31,337.18Z" style="fill:#407BFF"></path><path d="M406.31,337.18a7.73,7.73,0,0,1,2.91-7.23c3.83-3.34,9.46-2.41,12.74,0s7.85,6.8,3.65,15-11.57.93-11.57.93-1.76.63-6.61-1.11c-4-1.42-2.11-2.6-2.11-2.6S404.27,340.77,406.31,337.18Z" style="fill:#fff;opacity:0.6000000000000001"></path><path d="M426.06,344a5.3,5.3,0,0,1-2.43-.53c-2.72-1.18-8.35-2.1-8.35-.62a3.72,3.72,0,0,1-1.24,3s7.36,7.24,11.57-.93C425.77,344.59,425.92,344.27,426.06,344Z" style="fill:#407BFF"></path><path d="M426.06,344a5.3,5.3,0,0,1-2.43-.53c-2.72-1.18-8.35-2.1-8.35-.62a3.72,3.72,0,0,1-1.24,3s7.36,7.24,11.57-.93C425.77,344.59,425.92,344.27,426.06,344Z" style="fill:#fff;opacity:0.30000000000000004"></path><path d="M407.32,338.06l-.79,2.41a.43.43,0,0,0,.56.54l.46-.18,1,.7a.42.42,0,0,0,.66-.4l-.2-2a.47.47,0,0,0-.11-.25l-.9-1A.43.43,0,0,0,407.32,338.06Z" style="fill:#407BFF"></path><path d="M404.62,344.73l-.52-.36a.5.5,0,0,1-.09-.73l.75-.83a.49.49,0,0,1,.64-.08l.27.19a.49.49,0,0,1,.17.63l-.5,1A.5.5,0,0,1,404.62,344.73Z" style="fill:#407BFF"></path><path d="M404.62,344.73l-.52-.36a.5.5,0,0,1-.09-.73l.75-.83a.49.49,0,0,1,.64-.08l.27.19a.49.49,0,0,1,.17.63l-.5,1A.5.5,0,0,1,404.62,344.73Z" style="fill:#fff;opacity:0.5"></path><path d="M407.24,346.09l-.52-.36a.5.5,0,0,1-.09-.73l.74-.83a.5.5,0,0,1,.65-.08l.27.19a.49.49,0,0,1,.17.63l-.51,1A.49.49,0,0,1,407.24,346.09Z" style="fill:#407BFF"></path><path d="M407.24,346.09l-.52-.36a.5.5,0,0,1-.09-.73l.74-.83a.5.5,0,0,1,.65-.08l.27.19a.49.49,0,0,1,.17.63l-.51,1A.49.49,0,0,1,407.24,346.09Z" style="fill:#fff;opacity:0.4"></path><path d="M409.3,346.94l-.59-.18a.49.49,0,0,1-.3-.68l.46-1a.49.49,0,0,1,.59-.26l.32.1a.48.48,0,0,1,.34.55l-.19,1.09A.49.49,0,0,1,409.3,346.94Z" style="fill:#407BFF"></path><path d="M409.3,346.94l-.59-.18a.49.49,0,0,1-.3-.68l.46-1a.49.49,0,0,1,.59-.26l.32.1a.48.48,0,0,1,.34.55l-.19,1.09A.49.49,0,0,1,409.3,346.94Z" style="fill:#fff;opacity:0.6000000000000001"></path><path d="M412.41,347.49l-.63,0a.49.49,0,0,1-.45-.58l.21-1.1a.47.47,0,0,1,.51-.39l.33,0a.48.48,0,0,1,.46.45l.08,1.11A.48.48,0,0,1,412.41,347.49Z" style="fill:#407BFF"></path><path d="M412.41,347.49l-.63,0a.49.49,0,0,1-.45-.58l.21-1.1a.47.47,0,0,1,.51-.39l.33,0a.48.48,0,0,1,.46.45l.08,1.11A.48.48,0,0,1,412.41,347.49Z" style="fill:#fff;opacity:0.4"></path><path d="M417.41,337c0,1.46-1.68,2.15-3.14,2.15a1.88,1.88,0,0,1-2.15-2.15,2.65,2.65,0,0,1,5.29,0Z" style="fill:#407BFF"></path><path d="M407.92,336.32c-.37,1.42-1,2-1.34,1.87s-.36-.81,0-2.22.72-1.52,1.08-1.42S408.3,334.91,407.92,336.32Z" style="fill:#407BFF"></path><path d="M415.62,334.55a3,3,0,0,0-1.38,4.64h0c1.46,0,3.14-.69,3.14-2.15A2.64,2.64,0,0,0,415.62,334.55Z" style="fill:#407BFF"></path><path d="M415.62,334.55a3,3,0,0,0-1.38,4.64h0c1.46,0,3.14-.69,3.14-2.15A2.64,2.64,0,0,0,415.62,334.55Z" style="opacity:0.2"></path><g style="opacity:0.30000000000000004"><polygon points="336.69 346.29 346.25 317.17 336.41 317.17 326.85 346.29 336.69 346.29" style="fill:#fff"></polygon><polygon points="351.89 317.17 348.99 317.17 339.43 346.29 342.33 346.29 351.89 317.17" style="fill:#fff"></polygon><polygon points="411.01 317.17 391.98 317.17 382.41 346.29 401.45 346.29 411.01 317.17" style="fill:#fff"></polygon><polygon points="416.65 317.17 413.75 317.17 404.19 346.29 407.09 346.29 416.65 317.17" style="fill:#fff"></polygon></g></g><g id="freepik--character-1--inject-73"><path d="M122.35,238.34l3.93-1.32a1.3,1.3,0,0,0,.88-1.23v-11.2a1.3,1.3,0,0,0-1.71-1.23l-3.92,1.33a1.29,1.29,0,0,0-.88,1.23v11.2A1.29,1.29,0,0,0,122.35,238.34Z" style="fill:#407BFF"></path><path d="M125.48,225.12c0,.42.23.76.51.76s.5-.34.5-.76-.23-.76-.5-.76S125.48,224.7,125.48,225.12Z" style="fill:#263238"></path><path d="M116.87,258.08l5.68-2.66,1.56-12.1-.62-7.78a1.82,1.82,0,0,1,0-.57l.26-1.5a2.27,2.27,0,0,1,2.24-1.88h1.32a2.33,2.33,0,0,1,1.15.31l1.45.84a2.27,2.27,0,0,1,1.1,2.32,27.63,27.63,0,0,1-3.08,8.81s3.77,12.62-.59,16.53a19.05,19.05,0,0,1-9.22,4.56Z" style="fill:#ffb573"></path><path d="M104.06,260.94c3.31-1.41,13.61-4.74,13.61-4.74a31.63,31.63,0,0,1,4.26,10s-8.48,3-11.89,3.44C103.48,270.36,99.16,263,104.06,260.94Z" style="fill:#407BFF"></path><path d="M112.56,262.48c2.63.47,5.32,2.8,7,4.51-1.88.64-4.54,1.49-6.78,2.06l-3.1-3.38S108.29,261.72,112.56,262.48Z" style="opacity:0.1"></path><path d="M119.11,295.85s8.57,26.47,9.47,52.72a8.55,8.55,0,0,1,0,.88l-5.25,53.65h-8.46s-4.13-29.89-.07-53.9l-11.3-53.35Z" style="fill:#263238"></path><polygon points="122.56 402.59 122.18 408.32 116.04 408.44 115.35 401.9 122.27 402.05 122.56 402.59" style="fill:#ffb573"></polygon><path d="M112.39,319.83l2-7s7.5,24.47-.89,47c.28-3.62.69-7.22,1.28-10.7l-4.13-19.49Z" style="opacity:0.4"></path><polygon points="124.61 401.41 124.27 404.84 113.68 404.84 113.27 401.41 124.61 401.41" style="fill:#263238"></polygon><polygon points="124.61 401.41 124.27 404.84 113.68 404.84 113.27 401.41 124.61 401.41" style="fill:#fff;opacity:0.2"></polygon><path d="M122.7,408.31a.14.14,0,0,1,0-.26c.09-.05,2.12-1.27,3.11-1a.69.69,0,0,1,.45.31.53.53,0,0,1,0,.61,2.57,2.57,0,0,1-1.73.49A10,10,0,0,1,122.7,408.31Zm.45-.2c1.1.12,2.59.07,2.85-.32,0,0,.08-.13,0-.3a.4.4,0,0,0-.28-.19,1.24,1.24,0,0,0-.27,0A6.62,6.62,0,0,0,123.15,408.11Z" style="fill:#407BFF"></path><path d="M122.63,408.31a.15.15,0,0,1-.07-.13,4,4,0,0,1,.87-2.3,1,1,0,0,1,.77-.26c.39,0,.51.22.53.38.14.66-1.25,2-2,2.3h-.15Zm1.48-2.42a.79.79,0,0,0-.48.18,3.26,3.26,0,0,0-.74,1.83c.72-.45,1.63-1.47,1.58-1.87,0,0,0-.14-.28-.15Z" style="fill:#407BFF"></path><path d="M122.08,407.5l-6.44.14a.52.52,0,0,0-.5.42l-1,5.26a.85.85,0,0,0,.67,1,.55.55,0,0,0,.18,0c2.32-.09,4.38-.26,7.28-.32,3.41-.07,2.55.35,6.57.32,2.41,0,2.8-2.78,1.77-2.89-4.71-.49-5.22-1.89-7.07-3.53A2.05,2.05,0,0,0,122.08,407.5Z" style="fill:#263238"></path><polygon points="99.77 402.05 98.84 407.5 93.32 406.81 93.6 401.45 99.77 402.05" style="fill:#ffb573"></polygon><path d="M114.78,295.85s1.85,27.68-1.1,53.35L101,403.1l-8.8-1.65a195.11,195.11,0,0,1,7.87-52.94,6.61,6.61,0,0,0,0-3.69c-2.29-7.68-10.43-37.74-1.47-47.78Z" style="fill:#263238"></path><polygon points="102.61 401.19 101.58 404.84 90.79 403.02 90.79 399.27 102.61 401.19" style="fill:#263238"></polygon><polygon points="102.61 401.19 101.58 404.84 90.79 403.02 90.79 399.27 102.61 401.19" style="fill:#fff;opacity:0.2"></polygon><path d="M99.6,407.59a.17.17,0,0,1-.1-.13.16.16,0,0,1,.08-.14c.1,0,2.27-1,3.22-.63a.78.78,0,0,1,.41.37.54.54,0,0,1,0,.61,2.57,2.57,0,0,1-1.78.27A10.78,10.78,0,0,1,99.6,407.59Zm.47-.14c1.08.24,2.56.39,2.88,0,0,0,.08-.12,0-.3a.41.41,0,0,0-.25-.23l-.27-.06A6.47,6.47,0,0,0,100.07,407.45Z" style="fill:#407BFF"></path><path d="M99.53,407.57a.13.13,0,0,1,0-.13,4,4,0,0,1,1.15-2.18,1,1,0,0,1,.79-.16c.38.08.48.29.48.45.06.67-1.48,1.8-2.22,2a.06.06,0,0,1-.06,0A.15.15,0,0,1,99.53,407.57Zm1.77-2.21a.71.71,0,0,0-.49.12,3.3,3.3,0,0,0-1,1.72c.77-.35,1.8-1.25,1.81-1.66,0,0,0-.14-.27-.18Z" style="fill:#407BFF"></path><path d="M99.09,406.7l-6.41-.65a.51.51,0,0,0-.55.35l-1.69,5.1a.85.85,0,0,0,.54,1.09l.17,0c2.32.2,4.39.28,7.26.58,3.4.35,2.5.67,6.48,1.13,2.41.28,3.13-2.41,2.12-2.65-4.61-1.06-5-2.52-6.58-4.38A2.13,2.13,0,0,0,99.09,406.7Z" style="fill:#263238"></path><path d="M112.56,262.48c3.24,2.68,4.67,5.13,6.18,17.18s1,17.38,1,17.38S115.86,300,97,298.41c0,0-3.56-18.33-8.43-25-3.67-5,.95-9.1,2.66-9.9C92.59,262.83,106.61,257.56,112.56,262.48Z" style="fill:#407BFF"></path><path d="M90.16,271.2h4.59a44.4,44.4,0,0,1-1.4,13.06,46.62,46.62,0,0,0-4.24-10Z" style="opacity:0.1"></path><path d="M84.32,275.59s-4.4,10-2.1,11.55,12.83,4.95,17.32,3.67,4.4-4.13,4.4-4.13l.79-1.07a2.2,2.2,0,0,0,.23-2.21l-.56-1.21a2.16,2.16,0,0,0-1.55-1.23l-1.07-.22a2.17,2.17,0,0,0-2.26.93,28.87,28.87,0,0,0-2.91,5.65L87.72,284l2.2-4.38Z" style="fill:#ffb573"></path><path d="M93.05,263.56c-1.43-.72-5.76.32-9.18,8-.72,1.61-2,5.19-2,5.19a28.29,28.29,0,0,0,9.34,4.86S99.63,266.91,93.05,263.56Z" style="fill:#407BFF"></path><path d="M107.54,254.91c.08-4.19-1.13-14.57-8.32-18.9-7.66-4.61-15.4,2.33-14.64,10.62.64,7.09,3.43,10.76,1.58,15s7.53,2.13,7.85-.07c0,0,4.14.76,6.12-1.86C100.13,259.72,107.46,259.14,107.54,254.91Z" style="fill:#263238"></path><path d="M103.48,266.33c-3.26,1.39-6.51-2.42-7.91-4.35l.38-.11c.31-2.95-1.48-7.19-2.75-9.64l7.49,3.39c.11,2.1.56,4.2,2.7,4.86.39,0,.78-.05,1.18-.06C105.47,262.33,106.22,265.16,103.48,266.33Z" style="fill:#ffb573"></path><path d="M96.27,253.63l4.46,2a10.35,10.35,0,0,0,.2,1.83c-1.4.19-3.78-.42-4.33-1.79A5.86,5.86,0,0,1,96.27,253.63Z" style="opacity:0.2;isolation:isolate"></path><path d="M88.59,248.46c3.22,4.46,4.49,6.41,8.34,7.31,5.79,1.34,10.55-3.59,8.73-8.92C104,242.06,99,235.58,93.32,236.61a7.48,7.48,0,0,0-4.73,11.85Z" style="fill:#ffb573"></path><path d="M100,244a11.57,11.57,0,0,0,2.87,1.56,1.91,1.91,0,0,1-1.18,1.11Z" style="fill:#ed893e"></path><path d="M94.62,244.52a.2.2,0,0,1-.11,0,.23.23,0,0,1-.18-.26h0a2.58,2.58,0,0,1,1.38-1.91.23.23,0,0,1,.29.12.22.22,0,0,1-.12.28,2.16,2.16,0,0,0-1.12,1.59A.18.18,0,0,1,94.62,244.52Z" style="fill:#263238"></path><path d="M101.56,239.51a.2.2,0,0,1-.11,0,2.12,2.12,0,0,0-1.85.58.21.21,0,0,1-.3,0h0a.22.22,0,0,1,0-.31,2.58,2.58,0,0,1,2.24-.73.22.22,0,0,1,.19.24.22.22,0,0,1-.15.18Z" style="fill:#263238"></path><path d="M96.92,245c.23.38.63.55.88.4s.25-.59,0-1-.64-.55-.88-.4S96.68,244.65,96.92,245Z" style="fill:#263238"></path><path d="M101.18,242.32c.24.38.63.56.88.4s.25-.58,0-1-.63-.56-.87-.4S100.94,242,101.18,242.32Z" style="fill:#263238"></path><path d="M101.1,241.45l.74-.84S101.82,241.61,101.1,241.45Z" style="fill:#263238"></path><path d="M96.83,244.15l.74-.83S97.56,244.32,96.83,244.15Z" style="fill:#263238"></path><path d="M99.35,250.33a5.14,5.14,0,0,1-.88-.08.15.15,0,0,1-.13-.18h0a.16.16,0,0,1,.17-.13,4.2,4.2,0,0,0,3.65-1,.16.16,0,1,1,.23.22A4.39,4.39,0,0,1,99.35,250.33Z" style="fill:#263238"></path><path d="M95.5,237.69s2.07,1,1.38,2.62-4,1.81-3.93,4.59,1.7,4.53,0,5.85-4.18-.85-4.18-.85-4.52-5.37-1.63-9.59,6.93-6.44,9.88-5.59,4.66,1.57,3.86,2.45-2.17,1.71-3,1.22A4.35,4.35,0,0,0,95.5,237.69Z" style="fill:#263238"></path><path d="M90.17,250.28l.43.1c.48-2.11,4-3.88,4.78-4.24a2.93,2.93,0,0,0,1.45,1.07,2.49,2.49,0,0,0,.7.11,2.05,2.05,0,0,0,1.11-.32,2.49,2.49,0,0,0,.56-3.38,1.13,1.13,0,0,1,.63-.69,2.76,2.76,0,0,0,2.16,1.19,2,2,0,0,0,1.11-.32,2.12,2.12,0,0,0,1-1.55,2.86,2.86,0,0,0-.45-1.93,2.52,2.52,0,0,0-3.38-1,2.16,2.16,0,0,0-1,1.56,2.82,2.82,0,0,0,.32,1.69,1.57,1.57,0,0,0-.68.65,2.82,2.82,0,0,0-1.33-.92,2.11,2.11,0,0,0-2.77,1.77,2.89,2.89,0,0,0,.34,1.71C94.24,246.19,90.69,248,90.17,250.28Zm9.92-7.72a2.44,2.44,0,0,1-.38-1.64,1.69,1.69,0,0,1,.75-1.24,1.63,1.63,0,0,1,.88-.25,2.34,2.34,0,0,1,1.89,1.12,2.44,2.44,0,0,1,.38,1.64,1.69,1.69,0,0,1-.75,1.24A2.07,2.07,0,0,1,100.09,242.56Zm-4.84,1.55a1.69,1.69,0,0,1,.75-1.24,1.58,1.58,0,0,1,.88-.25,2.3,2.3,0,0,1,.57.08,2.49,2.49,0,0,1,1.32,1,2.07,2.07,0,0,1-.37,2.88,1.67,1.67,0,0,1-1.44.17,2.49,2.49,0,0,1-1.32-1A2.45,2.45,0,0,1,95.25,244.11Z" style="fill:#263238"></path><path d="M90.17,250.28l.43.1c.48-2.11,4-3.88,4.78-4.24a2.93,2.93,0,0,0,1.45,1.07,2.49,2.49,0,0,0,.7.11,2.05,2.05,0,0,0,1.11-.32,2.49,2.49,0,0,0,.56-3.38,1.13,1.13,0,0,1,.63-.69,2.76,2.76,0,0,0,2.16,1.19,2,2,0,0,0,1.11-.32,2.12,2.12,0,0,0,1-1.55,2.86,2.86,0,0,0-.45-1.93,2.52,2.52,0,0,0-3.38-1,2.16,2.16,0,0,0-1,1.56,2.82,2.82,0,0,0,.32,1.69,1.57,1.57,0,0,0-.68.65,2.82,2.82,0,0,0-1.33-.92,2.11,2.11,0,0,0-2.77,1.77,2.89,2.89,0,0,0,.34,1.71C94.24,246.19,90.69,248,90.17,250.28Zm9.92-7.72a2.44,2.44,0,0,1-.38-1.64,1.69,1.69,0,0,1,.75-1.24,1.63,1.63,0,0,1,.88-.25,2.34,2.34,0,0,1,1.89,1.12,2.44,2.44,0,0,1,.38,1.64,1.69,1.69,0,0,1-.75,1.24A2.07,2.07,0,0,1,100.09,242.56Zm-4.84,1.55a1.69,1.69,0,0,1,.75-1.24,1.58,1.58,0,0,1,.88-.25,2.3,2.3,0,0,1,.57.08,2.49,2.49,0,0,1,1.32,1,2.07,2.07,0,0,1-.37,2.88,1.67,1.67,0,0,1-1.44.17,2.49,2.49,0,0,1-1.32-1A2.45,2.45,0,0,1,95.25,244.11Z" style="fill:#fff;opacity:0.5"></path><path d="M89.82,252.82a4,4,0,0,0,2.91,1c1.4-.12,1.62-1.49.83-2.56s-2.31-2.07-3.53-1.43a1.8,1.8,0,0,0-.21,3Z" style="fill:#ffb573"></path><path d="M105.39,260.32a2.75,2.75,0,0,0-1.67,0s2.72,4.46-.68,5.59-7.48-4.15-7.48-4.15a1.73,1.73,0,0,0-1.43.51s4.45,6.19,9.18,4.81S105.39,260.32,105.39,260.32Z" style="fill:#407BFF"></path><path d="M105.39,260.32a2.75,2.75,0,0,0-1.67,0s2.72,4.46-.68,5.59-7.48-4.15-7.48-4.15a1.73,1.73,0,0,0-1.43.51s4.45,6.19,9.18,4.81S105.39,260.32,105.39,260.32Z" style="fill:#fff;opacity:0.7000000000000001"></path></g></svg>